<?xml version="1.0" standalone="no"?>
<!DOCTYPE svg PUBLIC "-//W3C//DTD SVG 1.1//EN" "http://www.w3.org/Graphics/SVG/1.1/DTD/svg11.dtd" >
<svg>
<metadata>
Created by FontForge 20090914 at Mon Jul 15 11:08:08 2013
 By www-data
Copyright (c) 2011 by Atipus. All rights reserved.
</metadata>
<defs>
<font id="Blanch-Condensed" horiz-adv-x="833" >
  <font-face 
    font-family="Blanch"
    font-weight="400"
    font-stretch="normal"
    units-per-em="1000"
    panose-1="2 0 5 4 0 0 0 2 0 4"
    ascent="750"
    descent="-250"
    x-height="664.001"
    cap-height="665"
    bbox="-47.2878 -134 549.998 870"
    underline-thickness="50"
    underline-position="-50"
    unicode-range="U+0020-U+20AC"
  />
<missing-glyph horiz-adv-x="0" 
 />
    <glyph glyph-name=".notdef" horiz-adv-x="0" 
 />
    <glyph glyph-name="space" unicode=" " horiz-adv-x="144" 
 />
    <glyph glyph-name="space" unicode="&#xa0;" horiz-adv-x="144" 
 />
    <glyph glyph-name="exclam" unicode="!" horiz-adv-x="147" 
d="M77 37c10.667 0 16 -5.33301 16 -16v-66c0 -4 -1.5 -7.66699 -4.5 -11s-6.83301 -5 -11.5 -5h-32c-4.66699 0 -8.5 1.66699 -11.5 5s-4.5 7 -4.5 11v66c0 10.667 5.33301 16 16 16h32zM93 117c0 -10.667 -5.33301 -16 -16 -16h-32c-10.667 0 -16 5.33301 -16 16v533
c0 10.667 5.33301 16 16 16h32c10.667 0 16 -5.33301 16 -16v-533z" />
    <glyph glyph-name="numbersign" unicode="#" horiz-adv-x="530" 
d="M215 269h64v128h-64v-128zM343 397v-128h116c10.667 0 16 -5.33301 16 -16v-32c0 -10.667 -5.33301 -16 -16 -16h-116v-189c0 -4 -1.5 -7.66699 -4.5 -11s-6.83301 -5 -11.5 -5h-32c-4.66699 0 -8.5 1.66699 -11.5 5s-4.5 7 -4.5 11v189h-64v-189
c0 -4 -1.5 -7.66699 -4.5 -11s-6.83301 -5 -11.5 -5h-32c-4.66699 0 -8.5 1.66699 -11.5 5s-4.5 7 -4.5 11v189h-116c-10.667 0 -16 5.33301 -16 16v32c0 10.667 5.33301 16 16 16h116v128h-116c-10.667 0 -16 5.33301 -16 16v32c0 10.667 5.33301 16 16 16h116v188
c0 10.667 5.33301 16 16 16h32c10.667 0 16 -5.33301 16 -16v-188h64v188c0 10.667 5.33301 16 16 16h32c10.667 0 16 -5.33301 16 -16v-188h116c10.667 0 16 -5.33301 16 -16v-32c0 -10.667 -5.33301 -16 -16 -16h-116z" />
    <glyph glyph-name="dollar" unicode="$" horiz-adv-x="313" 
d="M211 502c-4 0 -7.66602 1.49902 -10.999 4.49902s-5 6.83301 -5 11.5v34c0 14 -5 26 -15 36s-22 15 -36 15s-26 -5 -36 -15s-15 -22 -15 -36v-51c0 -6 0.166992 -9.66699 0.5 -11s1.16602 -3.33301 2.49902 -6l144 -254l11 -20.5c2.66699 -5 4.5 -9.5 5.5 -13.5
s1.66699 -8.16699 2 -12.5s0.5 -10.166 0.5 -17.499v-50c0 -26 -7.83301 -49 -23.5 -69s-35.5 -33.667 -59.5 -41v-50c0 -10.667 -5.33301 -16 -16 -16h-32c-10.667 0 -16 5.33301 -16 16v50c-24 7.33301 -43.833 21 -59.5 41s-23.5 43 -23.5 69v34
c0 10.667 5.33301 16 16 16h32c10.667 0 16 -5.33301 16 -16v-34c0 -14 5 -26 15 -36s22 -15 36 -15s26 5 36 15s15 22 15 36v50v11c0 1.33301 -0.666992 3.33301 -2 6l-144 254l-12 20c-2.66699 4.66699 -4.5 9 -5.5 13s-1.66699 8.33301 -2 13s-0.5 10.667 -0.5 18v51
c0 26 7.83301 49 23.5 69s35.5 33.667 59.5 41v50c0 10.667 5.33301 16 16 16h32c10.667 0 16 -5.33301 16 -16v-50c24 -7.33301 43.833 -21 59.5 -41s23.5 -43 23.5 -69v-34c0 -10.667 -5.33301 -16 -16 -16h-32v0z" />
    <glyph glyph-name="percent" unicode="%" horiz-adv-x="566" 
d="M196 550c0 14 -5 26 -15 36s-22 15 -36 15c-14.667 0 -27 -5 -37 -15s-15 -22 -15 -36v-68c0 -14 5 -26 15 -36s22.333 -15 37 -15c14 0 26 5 36 15s15 22 15 36v68zM397 299c16 0 31 -3 45 -9s26.167 -14.333 36.5 -25s18.5 -22.834 24.5 -36.501s9 -28.5 9 -44.5v-68
c0 -16 -3 -30.833 -9 -44.5s-14.167 -25.834 -24.5 -36.501s-22.5 -19 -36.5 -25s-29 -9 -45 -9s-30.833 3 -44.5 9s-25.834 14.333 -36.501 25s-19 22.834 -25 36.501s-9 28.5 -9 44.5v68c0 16 3 30.833 9 44.5s14.333 25.834 25 36.501s22.834 19 36.501 25s28.5 9 44.5 9
zM260 482c0 -16 -3 -30.833 -9 -44.5s-14.333 -25.834 -25 -36.501s-22.834 -19 -36.501 -25s-28.5 -9 -44.5 -9s-31 3 -45 9s-26.333 14.333 -37 25s-19 22.834 -25 36.501s-9 28.5 -9 44.5v68c0 16 3 30.833 9 44.5s14.333 25.834 25 36.501s23 19 37 25s29 9 45 9
s30.833 -3 44.5 -9s25.834 -14.333 36.501 -25s19 -22.834 25 -36.501s9 -28.5 9 -44.5v-68zM222 180c-1.33301 -2.66699 -2.16602 -4.66602 -2.49902 -5.99902s-0.5 -5 -0.5 -11v-147c0 -10.667 -5.33301 -16 -16 -16h-32c-4 0 -7.66699 1.5 -11 4.5s-5 6.83301 -5 11.5
v147c0 7.33301 0.166992 13.166 0.5 17.499s1 8.5 2 12.5s2.83301 8.5 5.5 13.5s6.66699 11.833 12 20.5l144 255c1.33301 2.66699 2.16602 4.66699 2.49902 6s0.5 5 0.5 11v150c0 10.667 5.33301 16 16 16h32c10.667 0 16 -5.33301 16 -16v-150
c0 -7.33301 -0.166992 -13.333 -0.5 -18s-1 -9 -2 -13s-2.83301 -8.33301 -5.5 -13l-11 -20zM448 184.001c0 14 -5 26 -15 36s-22 15 -36 15s-26 -5 -36 -15s-15 -22 -15 -36v-68c0 -14 5 -26 15 -36s22 -15 36 -15s26 5 36 15s15 22 15 36v68z" />
    <glyph glyph-name="ampersand" unicode="&#x26;" horiz-adv-x="371" 
d="M311 431c10.667 0 16 -5.33301 16 -16v-32c0 -10.667 -5.33301 -16 -16 -16h-51v-351c0 -4 -1.66699 -7.66699 -5 -11s-7 -5 -11 -5h-100c-16 0 -30.833 3 -44.5 9s-25.834 14.333 -36.501 25s-19 23 -25 37s-9 29 -9 45v199c0 34 12 62 36 84c-24 22 -36 49.667 -36 83
v68c0 16 3 31 9 45s14.333 26.167 25 36.5s22.834 18.5 36.501 24.5s28.5 9 44.5 9h34c10.667 0 16 -5.33301 16 -16v-32c0 -4 -1.5 -7.66699 -4.5 -11s-6.83301 -5 -11.5 -5h-34c-14 0 -26 -5 -36 -15s-15 -22 -15 -36v-68c0 -14 5 -26 15 -36s22 -15 36 -15h52v51
c0 10.667 5.33301 16 16 16h32c4 0 7.66699 -1.5 11 -4.5s5 -6.83301 5 -11.5v-51h51zM196 367h-52c-14 0 -26 -5 -36 -15s-15 -22.333 -15 -37v-199c0 -14 5 -26 15 -36s22 -15 36 -15h52v302z" />
    <glyph glyph-name="quotesingle" unicode="'" horiz-adv-x="147" 
d="M77 666c10.667 0 16 -5.33301 16 -16v-200c0 -10.667 -5.33301 -16 -16 -16h-32c-10.667 0 -16 5.33301 -16 16v200c0 10.667 5.33301 16 16 16h32v0z" />
    <glyph glyph-name="parenleft" unicode="(" horiz-adv-x="214" 
d="M144 602c-14 0 -26 -5.00098 -36 -15.001s-15 -22.333 -15 -37v-435c0 -14 5 -26 15 -36s22 -15 36 -15c10.667 0 16 -5.33301 16 -16v-32c0 -10.667 -5.33301 -16 -16 -16c-16 0 -30.833 3 -44.5 9s-25.834 14.333 -36.501 25s-19 22.834 -25 36.501s-9 28.5 -9 44.5
v435c0 16 3 31 9 45s14.333 26.167 25 36.5s22.834 18.5 36.501 24.5s28.5 9 44.5 9c10.667 0 16 -5.33301 16 -16v-31c0 -10.667 -5.33301 -16 -16 -16z" />
    <glyph glyph-name="parenright" unicode=")" horiz-adv-x="213" 
d="M45 665c16 0 30.833 -2.99902 44.5 -8.99902s25.834 -14.167 36.501 -24.5s19 -22.5 25 -36.5s9 -29 9 -45v-435c0 -16 -3 -30.833 -9 -44.5s-14.333 -25.834 -25 -36.501s-22.834 -19 -36.501 -25s-28.5 -9 -44.5 -9c-10.667 -0 -16 5.33301 -16 16v32
c0 10.667 5.33301 16 16 16c14 0 26 5 36 15s15 22 15 36v435c0 14.667 -5 27 -15 37s-22 15 -36 15c-10.667 0 -16 5.33301 -16 16v31c0 10.667 5.33301 16 16 16z" />
    <glyph glyph-name="plus" unicode="+" horiz-adv-x="278" 
d="M209 365c4 0 7.66699 -1.5 11 -4.5s5 -6.83301 5 -11.5v-32c0 -4 -1.66699 -7.66699 -5 -11s-7 -5 -11 -5h-50v-50c0 -4 -1.5 -7.5 -4.5 -10.5s-6.83301 -4.5 -11.5 -4.5h-32c-4.66699 0 -8.5 1.5 -11.5 4.5s-4.5 6.5 -4.5 10.5v50h-50c-4.66699 0 -8.5 1.66699 -11.5 5
s-4.5 7 -4.5 11v32c0 10.667 5.33301 16 16 16h50v50c0 10.667 5.33301 16 16 16h32c10.667 0 16 -5.33301 16 -16v-50h50v0z" />
    <glyph glyph-name="comma" unicode="," horiz-adv-x="147" 
d="M77 98c10.667 0 16 -5.33301 16 -16v-200c0 -10.667 -5.33301 -16 -16 -16h-32c-10.667 0 -16 5.33301 -16 16v200c0 10.667 5.33301 16 16 16h32v0z" />
    <glyph glyph-name="hyphen" unicode="-" horiz-adv-x="279" 
d="M209 365c10.667 0 16 -5.33301 16 -16v-32c0 -10.667 -5.33301 -16 -16 -16h-164c-4 0 -7.66699 1.5 -11 4.5s-5 6.83301 -5 11.5v32c0 4.66699 1.66699 8.5 5 11.5s7 4.5 11 4.5h164v0z" />
    <glyph glyph-name="period" unicode="." horiz-adv-x="147" 
d="M77 98c10.667 0 16 -5.33301 16 -16v-66c0 -4 -1.5 -7.66699 -4.5 -11s-6.83301 -5 -11.5 -5h-32c-4.66699 0 -8.5 1.66699 -11.5 5s-4.5 7 -4.5 11v66c0 10.667 5.33301 16 16 16h32v0z" />
    <glyph glyph-name="slash" unicode="/" horiz-adv-x="314" 
d="M260 499c0 -7.33301 -0.166992 -13.3311 -0.5 -17.998s-1 -9 -2 -13s-3 -8.33301 -6 -13s-6.83301 -11.334 -11.5 -20.001l-144 -255c-1.33301 -2.66699 -2.16602 -4.66699 -2.49902 -6s-0.5 -5 -0.5 -11v-147c0 -10.667 -5.33301 -16 -16 -16h-32
c-10.667 0 -16 5.33301 -16 16v147c0 7.33301 0.166992 13.166 0.5 17.499s1 8.5 2 12.5s2.83301 8.5 5.5 13.5l11 20.5l145 255c1.33301 2.66699 2.16602 4.66699 2.49902 6s0.5 5 0.5 11v150c0 10.667 5.33301 16 16 16h32c4 0 7.66699 -1.5 11 -4.5s5 -6.83301 5 -11.5
v-150z" />
    <glyph glyph-name="zero" unicode="0" horiz-adv-x="313" 
d="M195 356l-99.001 -176c-1.33301 -2.66699 -2.16602 -4.66699 -2.49902 -6s-0.5 -5 -0.5 -11v-48c0 -14 5 -26 15 -36s22 -15 36 -15s26 5 36 15s15 22 15 36v241zM143.999 665c16 0 31 -3 45 -9s26.167 -14.333 36.5 -25s18.5 -23 24.5 -37s9 -29 9 -45v-434
c0 -16 -3 -31 -9 -45s-14.167 -26.167 -24.5 -36.5s-22.5 -18.5 -36.5 -24.5s-29 -9 -45 -9s-31 3 -45 9s-26.167 14.167 -36.5 24.5s-18.5 22.5 -24.5 36.5s-9 29 -9 45v434c0 16 3 31 9 45s14.167 26.333 24.5 37s22.5 19 36.5 25s29 9 45 9zM194.999 549
c0 14.667 -5 27 -15 37s-22 15 -36 15s-26 -5 -36 -15s-15 -22.333 -15 -37v-243l100 176c1.33301 2.66699 2 4.66699 2 6v10v51z" />
    <glyph glyph-name="one" unicode="1" horiz-adv-x="215" 
d="M129 665c8.66699 0 16.167 -3.16699 22.5 -9.5s9.5 -13.833 9.5 -22.5v-617c0 -4.66699 -1.66699 -8.5 -5 -11.5s-7 -4.5 -11 -4.5h-32c-10.667 -0 -16 5.33301 -16 16v585h-52c-10.667 0 -16 5.33301 -16 16v32c0 4 1.5 7.66699 4.5 11s6.83301 5 11.5 5h84v0z" />
    <glyph glyph-name="two" unicode="2" horiz-adv-x="314" 
d="M96 180c-1.33301 -2.66699 -2.16699 -4.66602 -2.5 -5.99902s-0.5 -5 -0.5 -11v-99h151c4 0 7.66699 -1.66699 11 -5s5 -7 5 -11v-32c0 -4.66699 -1.66699 -8.5 -5 -11.5s-7 -4.5 -11 -4.5h-199c-10.667 0 -16 5.33301 -16 16v147c0 7.33301 0.166992 13.166 0.5 17.499
s1 8.5 2 12.5s2.83301 8.5 5.5 13.5l11 20.5l145 255c1.33301 2.66699 2.16602 4.66699 2.49902 6s0.5 4.66602 0.5 9.99902v51c0 14.667 -5 27 -15 37s-22.333 15 -37 15c-14 0 -26 -5 -36 -15s-15 -22.333 -15 -37v-34c0 -10.667 -5.33301 -16 -16 -16h-32
c-10.667 0 -16 5.33301 -16 16v34c0 16 3 31 9 45s14.333 26.333 25 37s22.834 19 36.501 25s28.5 9 44.5 9s31 -3 45 -9s26.333 -14.333 37 -25s19 -23 25 -37s9 -29 9 -45v-51c0 -7.33301 -0.166992 -13.166 -0.5 -17.499s-1 -8.5 -2 -12.5s-3 -8.5 -6 -13.5
s-6.83301 -11.833 -11.5 -20.5l-144 -254v0z" />
    <glyph glyph-name="three" unicode="3" horiz-adv-x="314" 
d="M260 415c0 -16 -3.16699 -31.167 -9.5 -45.5s-15.166 -26.833 -26.499 -37.5c11.333 -10.667 20.166 -23.167 26.499 -37.5s9.5 -29.5 9.5 -45.5v-134c0 -16 -3 -31 -9 -45s-14.333 -26.167 -25 -36.5s-23 -18.5 -37 -24.5s-29 -9 -45 -9s-30.833 3 -44.5 9
s-25.834 14.167 -36.501 24.5s-19 22.5 -25 36.5s-9 29 -9 45v34c0 10.667 5.33301 16 16 16h32c10.667 0 16 -5.33301 16 -16v-34c0 -14 5 -26 15 -36s22 -15 36 -15c14.667 0 27 5 37 15s15 22 15 36v134c0 14 -5 26 -15 36s-22.333 15 -37 15
c-10.667 0 -16 5.33301 -16 16v32c0 10.667 5.33301 16 16 16c14.667 0 27 5 37 15s15 22 15 36v134c0 14 -5 26 -15 36s-22.333 15 -37 15c-14 0 -26 -5 -36 -15s-15 -22 -15 -36v-34c0 -10.667 -5.33301 -16 -16 -16h-32c-10.667 0 -16 5.33301 -16 16v34c0 16 3 31 9 45
s14.333 26.333 25 37s22.834 19 36.501 25s28.5 9 44.5 9s31 -3 45 -9s26.333 -14.333 37 -25s19 -23 25 -37s9 -29 9 -45v-134z" />
    <glyph glyph-name="four" unicode="4" horiz-adv-x="381" 
d="M311 300c4.66699 0 8.5 -1.66504 11.5 -4.99805s4.5 -7 4.5 -11v-32c0 -10.667 -5.33301 -16 -16 -16h-51v-220c0 -4.66699 -1.66699 -8.5 -5 -11.5s-7 -4.5 -11 -4.5h-32c-10.667 0 -16 5.33301 -16 16v220h-151c-10.667 0 -16 5.33301 -16 16v61
c0 7.33301 0.166992 13.166 0.5 17.499s1 8.5 2 12.5s2.83301 8.5 5.5 13.5l11 20.5l145 255c1.33301 2.66699 2.16602 4.66699 2.49902 6s0.5 5 0.5 11c0 4 1.5 7.66699 4.5 11s6.83301 5 11.5 5h32c4 0 7.66699 -1.66699 11 -5s5 -7 5 -11
c0 -7.33301 -0.166992 -13.333 -0.5 -18s-1 -9 -2 -13s-3 -8.33301 -6 -13s-6.83301 -11.334 -11.5 -20.001l-144 -255c-1.33301 -2.66699 -2.16602 -4.66699 -2.49902 -6s-0.5 -5 -0.5 -11v-13h103v51c0 10.667 5.33301 16 16 16h32c4 0 7.66699 -1.5 11 -4.5
s5 -6.83301 5 -11.5v-51h51v0z" />
    <glyph glyph-name="five" unicode="5" horiz-adv-x="314" 
d="M145 428c16 0 30.833 -3 44.5 -9s25.834 -14.167 36.501 -24.5s19 -22.5 25 -36.5s9 -29 9 -45v-198c0 -16 -3 -31 -9 -45s-14.333 -26.167 -25 -36.5s-22.834 -18.5 -36.501 -24.5s-28.5 -9 -44.5 -9s-31 3 -45 9s-26.333 14.167 -37 24.5s-19 22.5 -25 36.5
s-9 29 -9 45v34c0 10.667 5.33301 16 16 16h32c10.667 0 16 -5.33301 16 -16v-34c0 -14 5 -26 15 -36s22.333 -15 37 -15c14 0 26 5 36 15s15 22 15 36v198c0 14 -5 26 -15 36s-22 15 -36 15h-100c-4.66699 0 -8.5 1.66699 -11.5 5s-4.5 7 -4.5 11v269
c0 4 1.5 7.66699 4.5 11s6.83301 5 11.5 5h199c4.66699 0 8.5 -1.66699 11.5 -5s4.5 -7 4.5 -11v-32c0 -10.667 -5.33301 -16 -16 -16h-151v-173h52v0z" />
    <glyph glyph-name="six" unicode="6" horiz-adv-x="314" 
d="M93 115c0 -14 5 -26 15 -36s22.333 -15 37 -15c14 0 26 5 36 15s15 22 15 36v198c0 14 -5 26 -15 36s-22 15 -36 15c-14.667 0 -27 -5 -37 -15s-15 -22 -15 -36v-198zM212 499c-10.667 0 -16.001 5.33301 -16.001 16v34c0 14.667 -5 27 -15 37s-22 15 -36 15
c-14.667 0 -27 -5 -37 -15s-15 -22.333 -15 -37v-133c16 8 33.333 12 52 12c16 0 30.833 -3 44.5 -9s25.834 -14.167 36.501 -24.5s19 -22.5 25 -36.5s9 -29 9 -45v-198c0 -16 -3 -31 -9 -45s-14.333 -26.167 -25 -36.5s-22.834 -18.5 -36.501 -24.5s-28.5 -9 -44.5 -9
s-31 3 -45 9s-26.333 14.167 -37 24.5s-19 22.5 -25 36.5s-9 29 -9 45v434c0 16 3 31 9 45s14.333 26.333 25 37s23 19 37 25s29 9 45 9s30.833 -3 44.5 -9s25.834 -14.333 36.501 -25s19 -23 25 -37s9 -29 9 -45v-34c0 -10.667 -5.33301 -16 -16 -16h-32z" />
    <glyph glyph-name="seven" unicode="7" horiz-adv-x="313" 
d="M259 498c0 -7.33301 -0.167969 -13.166 -0.500977 -17.499s-1 -8.5 -2 -12.5s-2.83301 -8.5 -5.5 -13.5l-11 -20.5l-144 -254c-1.33301 -2.66699 -2.16602 -4.66699 -2.49902 -6s-0.5 -5 -0.5 -11v-147c0 -10.667 -5.33301 -16 -16 -16h-32c-10.667 0 -16 5.33301 -16 16
v147c0 7.33301 0.166992 13.166 0.5 17.499s1 8.5 2 12.5s2.83301 8.5 5.5 13.5l11 20.5l145 255c1.33301 2.66699 2 4.66699 2 6v10v103h-150c-10.667 0 -16 5.33301 -16 16v32c0 4 1.5 7.66699 4.5 11s6.83301 5 11.5 5h198c4.66699 0 8.5 -1.66699 11.5 -5
s4.5 -7 4.5 -11v-151z" />
    <glyph glyph-name="eight" unicode="8" horiz-adv-x="313" 
d="M195 314c0 14 -5 26 -15 36s-22 15 -36 15s-26 -5 -36 -15s-15 -22 -15 -36v-199c0 -14 5 -26 15 -36s22 -15 36 -15s26 5 36 15s15 22 15 36v199zM195 549c0 14.667 -5 27 -15 37s-22 15 -36 15s-26 -5 -36 -15s-15 -22.333 -15 -37v-67c0 -14.667 5 -27 15 -37
s22 -15 36 -15s26 5 36 15s15 22.333 15 37v67zM259 482c0 -16.667 -3.16699 -32.167 -9.5 -46.5s-15.166 -26.833 -26.499 -37.5c11.333 -10.667 20.166 -23.167 26.499 -37.5s9.5 -29.833 9.5 -46.5v-199c0 -16 -3 -31 -9 -45s-14.167 -26.167 -24.5 -36.5
s-22.5 -18.5 -36.5 -24.5s-29 -9 -45 -9s-30.833 3 -44.5 9s-25.834 14.167 -36.501 24.5s-19 22.5 -25 36.5s-9 29 -9 45v199c0 16.667 3.16699 32.167 9.5 46.5s15.166 26.833 26.499 37.5c-11.333 10.667 -20.166 23.167 -26.499 37.5s-9.5 29.833 -9.5 46.5v67
c0 16 3 31 9 45s14.333 26.333 25 37s22.834 19 36.501 25s28.5 9 44.5 9s31 -3 45 -9s26.167 -14.333 36.5 -25s18.5 -23 24.5 -37s9 -29 9 -45v-67z" />
    <glyph glyph-name="nine" unicode="9" horiz-adv-x="313" 
d="M195 549c0 14.667 -5 27 -15 37s-22 15 -36 15s-26 -5 -36 -15s-15 -22.333 -15 -37v-133c0 -14 5 -26 15 -36s22 -15 36 -15s26 5 36 15s15 22 15 36v133zM144 665c16 0 31.001 -3 45.001 -9s26.167 -14.333 36.5 -25s18.5 -23 24.5 -37s9 -29 9 -45v-434
c0 -16 -3 -31 -9 -45s-14.167 -26.167 -24.5 -36.5s-22.5 -18.5 -36.5 -24.5s-29 -9 -45 -9s-30.833 3 -44.5 9s-25.834 14.167 -36.501 24.5s-19 22.5 -25 36.5s-9 29 -9 45v34c0 10.667 5.33301 16 16 16h32c10.667 0 16 -5.33301 16 -16v-34c0 -14 5 -26 15 -36
s22 -15 36 -15s26 5 36 15s15 22 15 36v198c-15.333 -8 -32.333 -12 -51 -12c-16 0 -30.833 3 -44.5 9s-25.834 14.167 -36.501 24.5s-19 22.5 -25 36.5s-9 29 -9 45v133c0 16 3 31 9 45s14.333 26.333 25 37s22.834 19 36.501 25s28.5 9 44.5 9z" />
    <glyph glyph-name="colon" unicode=":" horiz-adv-x="147" 
d="M77 98c4 0 7.66699 -1.5 11 -4.5s5 -6.83301 5 -11.5v-66c0 -4.66699 -1.66699 -8.5 -5 -11.5s-7 -4.5 -11 -4.5h-32c-10.667 -0 -16 5.33301 -16 16v66c0 10.667 5.33301 16 16 16h32zM77 98c10.667 0 16 -5.33301 16 -16v-66c0 -4 -1.5 -7.66699 -4.5 -11
s-6.83301 -5 -11.5 -5h-32c-4.66699 0 -8.5 1.66699 -11.5 5s-4.5 7 -4.5 11v66c0 10.667 5.33301 16 16 16h32zM77 380c10.667 0 16 -5.33301 16 -16v-66c0 -4 -1.5 -7.66699 -4.5 -11s-6.83301 -5 -11.5 -5h-32c-4.66699 0 -8.5 1.66699 -11.5 5s-4.5 7 -4.5 11v66
c0 10.667 5.33301 16 16 16h32z" />
    <glyph glyph-name="semicolon" unicode=";" horiz-adv-x="147" 
d="M77 380c10.667 0 16 -5.33301 16 -16v-66c0 -4 -1.5 -7.66699 -4.5 -11s-6.83301 -5 -11.5 -5h-32c-4.66699 0 -8.5 1.66699 -11.5 5s-4.5 7 -4.5 11v66c0 10.667 5.33301 16 16 16h32zM77 98c10.667 0 16 -5.33301 16 -16v-200c0 -10.667 -5.33301 -16 -16 -16h-32
c-10.667 0 -16 5.33301 -16 16v200c0 10.667 5.33301 16 16 16h32z" />
    <glyph glyph-name="equal" unicode="=" horiz-adv-x="279" 
d="M208 302c10.667 0 16 -5.33301 16 -16v-32c0 -10.667 -5.33301 -16 -16 -16h-163c-10.667 0 -16 5.33301 -16 16v32c0 10.667 5.33301 16 16 16h163zM208 429c10.667 0 16 -5.33301 16 -16v-32c0 -4 -1.5 -7.66699 -4.5 -11s-6.83301 -5 -11.5 -5h-163
c-4.66699 0 -8.5 1.66699 -11.5 5s-4.5 7 -4.5 11v32c0 10.667 5.33301 16 16 16h163z" />
    <glyph glyph-name="question" unicode="?" horiz-adv-x="313" 
d="M77 37c4 0 7.66699 -1.5 11 -4.5s5 -6.83301 5 -11.5v-66c0 -4.66699 -1.66699 -8.5 -5 -11.5s-7 -4.5 -11 -4.5h-32c-10.667 0 -16 5.33301 -16 16v66c0 10.667 5.33301 16 16 16h32zM144 666c16 0 30.833 -2.99902 44.5 -8.99902s25.834 -14.333 36.501 -25
s19 -22.834 25 -36.501s9 -28.5 9 -44.5v-51c0 -7.33301 -0.166992 -13.166 -0.5 -17.499s-1 -8.5 -2 -12.5s-3 -8.5 -6 -13.5s-6.83301 -11.833 -11.5 -20.5l-144 -254c-1.33301 -2.66699 -2 -4.66699 -2 -6v-10v-49c0 -4.66699 -1.66699 -8.5 -5 -11.5s-7 -4.5 -11 -4.5
h-32c-10.667 0 -16 5.33301 -16 16v49c0 7.33301 0.166992 13.166 0.5 17.499s1 8.5 2 12.5s2.83301 8.5 5.5 13.5l11 20.5l144 254c1.33301 2.66699 2.16602 4.66699 2.49902 6s0.5 4.66602 0.5 9.99902v51c0 14 -5 26 -15 36s-22 15 -36 15s-26 -5 -36 -15
s-15 -22 -15 -36v-34c0 -4.66699 -1.66699 -8.5 -5 -11.5s-7 -4.5 -11 -4.5h-32c-10.667 0 -16 5.33301 -16 16v34c0 16 3 30.833 9 44.5s14.167 25.834 24.5 36.501s22.5 19 36.5 25s29 9 45 9z" />
    <glyph glyph-name="at" unicode="@" horiz-adv-x="604" 
d="M435 665c16 0 30.998 -3 44.998 -9s26.167 -14.167 36.5 -24.5s18.5 -22.5 24.5 -36.5s9 -29 9 -45v-289c0 -16 -3 -30.833 -9 -44.5s-14.167 -25.834 -24.5 -36.501s-22.5 -19 -36.5 -25s-29 -9 -45 -9h-78c-10.667 0 -16 5.33301 -16 16v139h-102v-139
c0 -10.667 -5.33301 -16 -16 -16h-32c-10.667 0 -16 5.33301 -16 16v243c0 16 3 30.833 9 44.5s14.333 25.834 25 36.501s22.834 19 36.501 25s28.5 9 44.5 9s30.833 -3 44.5 -9s25.834 -14.333 36.501 -25s19 -22.834 25 -36.501s9 -28.5 9 -44.5v-195h30
c14.667 0 27 5 37 15s15 22 15 36v289c0 14.667 -5 27 -15 37s-22.333 15 -37 15h-291c-14 0 -26 -5 -36 -15s-15 -22.333 -15 -37v-435c0 -14 5 -26 15 -36s22 -15 36 -15h181c10.667 0 16 -5.33301 16 -16v-32c0 -10.667 -5.33301 -16 -16 -16h-181
c-16 0 -30.833 3 -44.5 9s-25.834 14.333 -36.501 25s-19 22.834 -25 36.501s-9 28.5 -9 44.5v435c0 16 3 31 9 45s14.333 26.167 25 36.5s22.834 18.5 36.501 24.5s28.5 9 44.5 9h291zM340.998 405c0 14 -5 26 -15 36s-22 15 -36 15s-26 -5 -36 -15s-15 -22 -15 -36v-40
h102v40z" />
    <glyph glyph-name="A" unicode="A" horiz-adv-x="314" 
d="M145 665c16 0 30.832 -3 44.499 -9s25.834 -14.333 36.501 -25s19 -23 25 -37s9 -29 9 -45v-533c0 -10.667 -5.33301 -16 -16 -16h-32c-10.667 -0 -16 5.33301 -16 16v285h-103v-285c0 -10.667 -5.33301 -16 -16 -16h-32c-4 0 -7.66699 1.5 -11 4.5s-5 6.83301 -5 11.5
v533c0 16 3 31 9 45s14.333 26.333 25 37s23 19 37 25s29 9 45 9zM195.999 365v184c0 14.667 -5 27 -15 37s-22 15 -36 15c-14.667 0 -27 -5 -37 -15s-15 -22.333 -15 -37v-184h103z" />
    <glyph glyph-name="B" unicode="B" horiz-adv-x="314" 
d="M196 249c0 14 -5 26 -15 36s-22 15 -36 15h-52v-236h52c14 0 26 5 36 15s15 22 15 36v134zM260 416c0 -16.667 -3.16699 -32.166 -9.5 -46.499s-15.166 -26.833 -26.499 -37.5c11.333 -10.667 20.166 -23 26.499 -37s9.5 -29.333 9.5 -46v-134c0 -16 -3 -30.833 -9 -44.5
s-14.333 -25.834 -25 -36.501s-22.834 -19 -36.501 -25s-28.5 -9 -44.5 -9h-84c-8.66699 0 -16.167 3 -22.5 9s-9.5 13.667 -9.5 23v601c0 8.66699 3.16699 16.167 9.5 22.5s13.833 9.5 22.5 9.5h84c16 0 30.833 -3 44.5 -9s25.834 -14.333 36.501 -25s19 -23 25 -37
s9 -29 9 -45v-133zM196 549.001c0 14.667 -5 27 -15 37s-22 15 -36 15h-52v-237h52c14 0 26 5 36 15s15 22.333 15 37v133z" />
    <glyph glyph-name="C" unicode="C" horiz-adv-x="303" 
d="M211 500c-10.667 0 -16 5.33301 -16 16v34c0 14 -5 26 -15 36s-22 15 -36 15s-26 -5 -36 -15s-15 -22 -15 -36v-435c0 -14 5 -26 15 -36s22 -15 36 -15s26 5 36 15s15 22 15 36v37c0 10.667 5.33301 16 16 16h32c10.667 0 16 -5.33301 16 -16v-37
c0 -16 -3 -30.833 -9 -44.5s-14.333 -25.834 -25 -36.501s-22.834 -19 -36.501 -25s-28.5 -9 -44.5 -9s-31 3 -45 9s-26.167 14.333 -36.5 25s-18.5 22.834 -24.5 36.501s-9 28.5 -9 44.5v435c0 16 3 30.833 9 44.5s14.167 25.834 24.5 36.501s22.5 19 36.5 25s29 9 45 9
s30.833 -3 44.5 -9s25.834 -14.333 36.501 -25s19 -22.834 25 -36.501s9 -28.5 9 -44.5v-34c0 -10.667 -5.33301 -16 -16 -16h-32v0z" />
    <glyph glyph-name="D" unicode="D" horiz-adv-x="314" 
d="M145 665c16 0 31 -2.99902 45 -8.99902s26.167 -14.333 36.5 -25s18.5 -23 24.5 -37s9 -29 9 -45v-434c0 -16 -3 -30.833 -9 -44.5s-14.167 -25.834 -24.5 -36.501s-22.5 -19 -36.5 -25s-29 -9 -45 -9h-84c-8.66699 0 -16.167 3 -22.5 9s-9.5 13.667 -9.5 23v601
c0 8.66699 3.16699 16.167 9.5 22.5s13.833 9.5 22.5 9.5h84zM196 549.001c0 14.667 -5 27 -15 37s-22 15 -36 15h-52v-537h52c14 0 26 5 36 15s15 22 15 36v434z" />
    <glyph glyph-name="E" unicode="E" horiz-adv-x="250" 
d="M93 601v-237h87c10.667 0 16 -5.33301 16 -16v-32c0 -4 -1.5 -7.66699 -4.5 -11s-6.83301 -5 -11.5 -5h-87v-236h87c4.66699 0 8.5 -1.66699 11.5 -5s4.5 -7 4.5 -11v-32c0 -10.667 -5.33301 -16 -16 -16h-119c-9.33301 0 -17 3 -23 9s-9 13.667 -9 23v601
c0 8.66699 3 16.167 9 22.5s13.667 9.5 23 9.5h119c4.66699 0 8.5 -1.66699 11.5 -5s4.5 -7 4.5 -11v-32c0 -10.667 -5.33301 -16 -16 -16h-87z" />
    <glyph glyph-name="F" unicode="F" horiz-adv-x="250" 
d="M93 601v-237h87c10.667 0 16 -5.33301 16 -16v-32c0 -4 -1.5 -7.66699 -4.5 -11s-6.83301 -5 -11.5 -5h-87v-284c0 -10.667 -5.33301 -16 -16 -16h-32c-10.667 -0 -16 5.33301 -16 16v617c0 8.66699 3.16699 16.167 9.5 22.5s13.833 9.5 22.5 9.5h119
c4.66699 0 8.5 -1.66699 11.5 -5s4.5 -7 4.5 -11v-32c0 -10.667 -5.33301 -16 -16 -16h-87z" />
    <glyph glyph-name="G" unicode="G" horiz-adv-x="313" 
d="M211 500c-10.667 0 -16 5.33301 -16 16v34c0 14 -5 26 -15 36s-22 15 -36 15s-26 -5 -36 -15s-15 -22 -15 -36v-435c0 -14 5 -26 15 -36s22 -15 36 -15s26 5 36 15s15 22 15 36v187h-35c-10.667 0 -16 5.33301 -16 16v32c0 10.667 5.33301 16 16 16h83
c10.667 0 16 -5.33301 16 -16v-235c0 -16 -3 -30.833 -9 -44.5s-14.333 -25.834 -25 -36.501s-22.834 -19 -36.501 -25s-28.5 -9 -44.5 -9s-30.833 3 -44.5 9s-25.834 14.333 -36.501 25s-19 22.834 -25 36.501s-9 28.5 -9 44.5v435c0 16 3 30.833 9 44.5
s14.333 25.834 25 36.501s22.834 19 36.501 25s28.5 9 44.5 9s30.833 -3 44.5 -9s25.834 -14.333 36.501 -25s19 -22.834 25 -36.501s9 -28.5 9 -44.5v-34c0 -10.667 -5.33301 -16 -16 -16h-32v0z" />
    <glyph glyph-name="H" unicode="H" horiz-adv-x="313" 
d="M243 665c4.66699 0 8.5 -1.66699 11.5 -5s4.5 -7 4.5 -11v-633c0 -10.667 -5.33301 -16 -16 -16h-31c-10.667 -0 -16 5.33301 -16 16v284h-103v-284c0 -10.667 -5.33301 -16 -16 -16h-32c-10.667 -0 -16 5.33301 -16 16v632v1c0 4 1.5 7.66699 4.5 11s6.83301 5 11.5 5
h32c4.66699 0 8.5 -1.66699 11.5 -5s4.5 -7 4.5 -11v-285h103v285c0 4 1.5 7.66699 4.5 11s6.83301 5 11.5 5h31v0z" />
    <glyph glyph-name="I" unicode="I" horiz-adv-x="147" 
d="M93 16c0 -10.667 -5.33301 -16 -16 -16h-32c-10.667 -0 -16 5.33301 -16 16v632v1c0 4 1.5 7.66699 4.5 11s6.83301 5 11.5 5h32c4.66699 0 8.5 -1.66699 11.5 -5s4.5 -7 4.5 -11v-633z" />
    <glyph glyph-name="J" unicode="J" horiz-adv-x="313" 
d="M243 665c10.667 0 16.001 -5.33301 16.001 -16v-534c0 -16 -3 -30.833 -9 -44.5s-14.167 -25.834 -24.5 -36.501s-22.5 -19 -36.5 -25s-29 -9 -45 -9s-30.833 3 -44.5 9s-25.834 14.333 -36.501 25s-19 22.834 -25 36.501s-9 28.5 -9 44.5v37c0 10.667 5.33301 16 16 16
h32c10.667 0 16 -5.33301 16 -16v-37c0 -14 5 -26 15 -36s22 -15 36 -15s26 5 36 15s15 22 15 36v534c0 4.66699 1.66699 8.5 5 11.5s7 4.5 11 4.5h32v0z" />
    <glyph glyph-name="K" unicode="K" horiz-adv-x="314" 
d="M260 416c0 -16.667 -3.16699 -32 -9.5 -46s-15.166 -26.333 -26.499 -37c11.333 -10.667 20.166 -23.167 26.499 -37.5s9.5 -29.833 9.5 -46.5v-233c0 -4.66699 -1.66699 -8.5 -5 -11.5s-7 -4.5 -11 -4.5h-32c-10.667 -0 -16 5.33301 -16 16v233c0 14.667 -5 27 -15 37
s-22.333 15 -37 15h-51v-285c0 -10.667 -5.33301 -16 -16 -16h-32c-10.667 -0 -16 5.33301 -16 16v285v64v283v1c0 4 1.5 7.66699 4.5 11s6.83301 5 11.5 5h32c4.66699 0 8.5 -1.66699 11.5 -5s4.5 -7 4.5 -11v-284h51c14.667 0 27 5 37 15s15 22 15 36v233
c0 4 1.5 7.66699 4.5 11s6.83301 5 11.5 5h32c4 0 7.66699 -1.66699 11 -5s5 -7 5 -11v-233z" />
    <glyph glyph-name="L" unicode="L" horiz-adv-x="239" 
d="M179 64c4.66699 0 8.5 -1.66699 11.5 -5s4.5 -7 4.5 -11v-32c0 -10.667 -5.33301 -16 -16 -16h-118c-9.33301 0 -17 3 -23 9s-9 13.667 -9 23v617c0 4 1.5 7.66699 4.5 11s6.83301 5 11.5 5h32c4 0 7.66699 -1.66699 11 -5s5 -7 5 -11v-585h86v0z" />
    <glyph glyph-name="M" unicode="M" horiz-adv-x="481" 
d="M311 665c16 0 31 -3 45 -9s26.333 -14.333 37 -25s19 -23 25 -37s9 -29 9 -45v-533c0 -4.66699 -1.66699 -8.5 -5 -11.5s-7 -4.5 -11 -4.5h-32c-10.667 -0 -16 5.33301 -16 16v533c0 14.667 -5 27 -15 37s-22.333 15 -37 15c-14 0 -26 -5 -36 -15s-15 -22.333 -15 -37
v-533c0 -10.667 -5.33301 -16 -16 -16h-32c-10.667 -0 -16 5.33301 -16 16v533c0 14.667 -5 27 -15 37s-22 15 -36 15c-14.667 0 -27 -5 -37 -15s-15 -22.333 -15 -37v-533c0 -10.667 -5.33301 -16 -16 -16h-32c-4 0 -7.66699 1.5 -11 4.5s-5 6.83301 -5 11.5v533
c0 16 3 31 9 45s14.333 26.333 25 37s23 19 37 25s29 9 45 9s31.167 -3.16699 45.5 -9.5s26.833 -15.166 37.5 -26.499c10.667 11.333 23.167 20.166 37.5 26.499s29.5 9.5 45.5 9.5z" />
    <glyph glyph-name="N" unicode="N" horiz-adv-x="314" 
d="M145 665c16 0 30.832 -3 44.499 -9s25.834 -14.333 36.501 -25s19 -23 25 -37s9 -29 9 -45v-533c0 -10.667 -5.33301 -16 -16 -16h-32c-10.667 -0 -16 5.33301 -16 16v533c0 14.667 -5 27 -15 37s-22 15 -36 15c-14.667 0 -27 -5 -37 -15s-15 -22.333 -15 -37v-533
c0 -10.667 -5.33301 -16 -16 -16h-32c-10.667 -0 -16 5.33301 -16 16v533c0 16 3 31 9 45s14.333 26.333 25 37s23 19 37 25s29 9 45 9z" />
    <glyph glyph-name="O" unicode="O" horiz-adv-x="314" 
d="M196 549c0 14.667 -5 27 -15 37s-22 15 -36 15c-14.667 0 -27 -5 -37 -15s-15 -22.333 -15 -37v-434c0 -14 5 -26 15 -36s22.333 -15 37 -15c14 0 26 5 36 15s15 22 15 36v434zM145 665c16 0 30.833 -3 44.5 -9s25.834 -14.333 36.501 -25s19 -23 25 -37s9 -29 9 -45
v-434c0 -16 -3 -31 -9 -45s-14.333 -26.167 -25 -36.5s-22.834 -18.5 -36.501 -24.5s-28.5 -9 -44.5 -9s-31 3 -45 9s-26.333 14.167 -37 24.5s-19 22.5 -25 36.5s-9 29 -9 45v434c0 16 3 31 9 45s14.333 26.333 25 37s23 19 37 25s29 9 45 9z" />
    <glyph glyph-name="P" unicode="P" horiz-adv-x="293" 
d="M195 549c0 14.667 -5 27 -15 37s-22 15 -36 15h-52v-236h52c14 0 26 5 36 15s15 22 15 36v133zM144 665c16 0 30.833 -3 44.5 -9s25.834 -14.333 36.501 -25s19 -23 25 -37s9 -29 9 -45v-133c0 -16 -3 -31 -9 -45s-14.333 -26.167 -25 -36.5s-22.834 -18.5 -36.501 -24.5
s-28.5 -9 -44.5 -9h-52v-285c0 -4.66699 -1.5 -8.5 -4.5 -11.5s-6.5 -4.5 -10.5 -4.5h-32c-10.667 -0 -16 5.33301 -16 16v285v64v283v1c0 4 1.5 7.66699 4.5 11s6.83301 5 11.5 5h99z" />
    <glyph glyph-name="Q" unicode="Q" horiz-adv-x="314" 
d="M195 548c0 14.667 -5 27 -15 37s-22 15 -36 15s-26 -5 -36 -15s-15 -22.333 -15 -37v-433c0 -14 5 -26 15 -36s22 -15 36 -15s26 5 36 15s15 22 15 36v433zM144 663c16 0 30.8311 -3 44.498 -9s25.834 -14.167 36.501 -24.5s19 -22.5 25 -36.5s9 -29 9 -45v-433
c0 -26 -7.83301 -49 -23.5 -69s-35.5 -33.667 -59.5 -41v-53c0 -4 -1.5 -7.5 -4.5 -10.5s-6.83301 -4.5 -11.5 -4.5h-32c-4.66699 0 -8.5 1.5 -11.5 4.5s-4.5 6.5 -4.5 10.5v53c-24 7.33301 -43.833 21 -59.5 41s-23.5 43 -23.5 69v433c0 16 3 31 9 45
s14.333 26.167 25 36.5s22.834 18.5 36.501 24.5s28.5 9 44.5 9z" />
    <glyph glyph-name="R" unicode="R" horiz-adv-x="308" 
d="M190 549c0 14.667 -5 27 -15 37s-22 15 -36 15h-51v-236h51c14 0 26 5 36 15s15 22 15 36v133zM254 416c0 -33.333 -11.667 -61 -35 -83c23.333 -22 35 -50 35 -84v-233c0 -10.667 -5.33301 -16 -16 -16h-32c-10.667 -0 -16 5.33301 -16 16v233c0 14.667 -5 27 -15 37
s-22 15 -36 15h-51v-285c0 -4.66699 -1.66699 -8.5 -5 -11.5s-7 -4.5 -11 -4.5h-32c-10.667 -0 -16 5.33301 -16 16v617c0 8.66699 3 16.167 9 22.5s13.667 9.5 23 9.5h83c16 0 31 -3 45 -9s26.167 -14.333 36.5 -25s18.5 -23 24.5 -37s9 -29 9 -45v-133z" />
    <glyph glyph-name="S" unicode="S" horiz-adv-x="293" 
d="M201 500c-10.667 0 -16 5.33301 -16 16v34c0 14 -5 26 -15 36s-22 15 -36 15s-26 -5 -36 -15s-15 -22 -15 -36v-51c0 -6 0.166992 -9.66699 0.5 -11s1.16602 -3.33301 2.49902 -6l144 -254l11 -20c2.66699 -4.66699 4.5 -9 5.5 -13s1.66699 -8.16699 2 -12.5
s0.5 -10.166 0.5 -17.499v-50c0 -16 -3 -31 -9 -45s-14.333 -26.167 -25 -36.5s-22.834 -18.5 -36.501 -24.5s-28.5 -9 -44.5 -9s-30.833 3 -44.5 9s-25.834 14.167 -36.501 24.5s-19 22.5 -25 36.5s-9 29 -9 45v34c0 4 1.5 7.66699 4.5 11s6.83301 5 11.5 5h32
c4.66699 0 8.5 -1.66699 11.5 -5s4.5 -7 4.5 -11v-34c0 -14.667 5 -27 15 -37s22 -15 36 -15s26 5 36 15s15 22.333 15 37v50c0 5.33301 -0.166992 8.66602 -0.5 9.99902s-1.16602 3.33301 -2.49902 6l-144 254l-11 20c-2.66699 4.66699 -4.5 9 -5.5 13
s-1.66699 8.33301 -2 13s-0.5 10.667 -0.5 18v51c0 16 3 30.833 9 44.5s14.333 25.834 25 36.501s22.834 19 36.501 25s28.5 9 44.5 9s30.833 -3 44.5 -9s25.834 -14.333 36.501 -25s19 -22.834 25 -36.501s9 -28.5 9 -44.5v-34c0 -10.667 -5.33301 -16 -16 -16h-32v0z" />
    <glyph glyph-name="T" unicode="T" horiz-adv-x="249" 
d="M189 665c4.66699 0 8.5 -1.66699 11.5 -5s4.5 -7 4.5 -11v-32c0 -10.667 -5.33301 -16 -16 -16h-45v-585c0 -10.667 -5.33301 -16 -16 -16h-32c-10.667 -0 -16 5.33301 -16 16v585h-45c-10.667 0 -16 5.33301 -16 16v32c0 4 1.5 7.66699 4.5 11s6.83301 5 11.5 5h154v0z
" />
    <glyph glyph-name="U" unicode="U" horiz-adv-x="314" 
d="M244 665c4.66699 0 8.50098 -1.66699 11.501 -5s4.5 -7 4.5 -11v-534c0 -16 -3 -31 -9 -45s-14.333 -26.167 -25 -36.5s-22.834 -18.5 -36.501 -24.5s-28.5 -9 -44.5 -9s-31 3 -45 9s-26.333 14.167 -37 24.5s-19 22.5 -25 36.5s-9 29 -9 45v534
c0 4 1.66699 7.66699 5 11s7 5 11 5h32c4.66699 0 8.5 -1.66699 11.5 -5s4.5 -7 4.5 -11v-534c0 -14 5 -26 15 -36s22.333 -15 37 -15c14 0 26 5 36 15s15 22 15 36v534c0 4 1.5 7.66699 4.5 11s6.83301 5 11.5 5h32v0z" />
    <glyph glyph-name="V" unicode="V" horiz-adv-x="314" 
d="M243 665c4.66699 0 8.5 -1.66797 11.5 -5.00098s4.5 -7 4.5 -11v-1v-481c0 -22.667 -6.33301 -44 -19 -64l-54 -95c-3.33301 -5.33301 -8 -8 -14 -8h-56c-6 0 -10.667 2.66699 -14 8l-54 95c-12.667 20 -19 41.333 -19 64v482c0 4 1.5 7.66699 4.5 11s6.83301 5 11.5 5
h32c4 0 7.66699 -1.66699 11 -5s5 -7 5 -11v-482c0 -3.33301 0.166992 -6.16602 0.5 -8.49902s0.833008 -4.83301 1.5 -7.5l49 -86l48 86c2 4.66699 3 10 3 16v482c0 4 1.5 7.66699 4.5 11s6.83301 5 11.5 5h32v0z" />
    <glyph glyph-name="W" unicode="W" horiz-adv-x="480" 
d="M410 664c10.667 0 16 -5.33105 16 -15.998v-481c0 -22.667 -6.33301 -44 -19 -64l-54 -95c-3.33301 -5.33301 -8 -8 -14 -8h-56c-6 0 -10.667 2.66699 -14 8l-41 73l-42 -73c-3.33301 -5.33301 -8 -8 -14 -8h-55c-7.33301 0 -12 2.66699 -14 8l-54 95
c-13.333 19.333 -20 40.666 -20 63.999v481c0 10.667 5.33301 16 16 16h32c10.667 0 16 -5.33301 16 -16v-481c0 -6 1 -11.333 3 -16l48 -86l49 86c2 4.66699 3 10 3 16v481c0 10.667 5.33301 16 16 16h32c10.667 0 16 -5.33301 16 -16v-481c0 -6 1 -11.333 3 -16l48 -86
l49 86c0.666992 2.66699 1.16699 5.16699 1.5 7.5s0.5 5.16602 0.5 8.49902v481c0 4.66699 1.66699 8.5 5 11.5s7 4.5 11 4.5h32v0z" />
    <glyph glyph-name="X" unicode="X" horiz-adv-x="314" 
d="M260 498c0 -23.333 -6.66699 -44.666 -20 -63.999l-58 -103l58 -104c13.333 -19.333 20 -40.666 20 -63.999v-147c0 -10.667 -5.33301 -16 -16 -16h-32c-10.667 0 -16 5.33301 -16 16v147c0 5.33301 -1 10.666 -3 15.999l-49 86l-48 -86
c-2 -5.33301 -3 -10.666 -3 -15.999v-147c0 -10.667 -5.33301 -16 -16 -16h-32c-10.667 0 -16 5.33301 -16 16v147c0 23.333 6.66699 44.666 20 63.999l58 104l-58 103c-13.333 19.333 -20 40.666 -20 63.999v151c0 4 1.5 7.66699 4.5 11s6.83301 5 11.5 5h32
c4.66699 0 8.5 -1.66699 11.5 -5s4.5 -7 4.5 -11v-151c0 -6 1 -11.333 3 -16l48 -86l49 86c2 4.66699 3 10 3 16v151c0 4 1.5 7.66699 4.5 11s6.83301 5 11.5 5h32c4.66699 0 8.5 -1.66699 11.5 -5s4.5 -7 4.5 -11v-151v0z" />
    <glyph glyph-name="Y" unicode="Y" horiz-adv-x="294" 
d="M234 665c4.66699 0 8.50098 -1.66699 11.501 -5s4.5 -7 4.5 -11v-233c0 -26.667 -7.83301 -50 -23.5 -70s-35.5 -33.667 -59.5 -41v-289c0 -4.66699 -1.66699 -8.5 -5 -11.5s-7 -4.5 -11 -4.5h-32c-10.667 -0 -16 5.33301 -16 16v289
c-24.667 7.33301 -44.834 21 -60.501 41s-23.5 43.333 -23.5 70v233c0 4 1.5 7.66699 4.5 11s6.83301 5 11.5 5h32c4.66699 0 8.5 -1.66699 11.5 -5s4.5 -7 4.5 -11v-233c0 -14 5 -26 15 -36s22.333 -15 37 -15c14 0 26 5 36 15s15 22 15 36v233c0 4 1.5 7.66699 4.5 11
s6.83301 5 11.5 5h32v0z" />
    <glyph glyph-name="Z" unicode="Z" horiz-adv-x="303" 
d="M259 498c0 -7.33301 -0.167969 -13.166 -0.500977 -17.499s-1 -8.5 -2 -12.5s-2.83301 -8.5 -5.5 -13.5l-11 -20.5l-144 -254c-1.33301 -2.66699 -2.16602 -4.66699 -2.49902 -6s-0.5 -5 -0.5 -11v-99h150c4.66699 0 8.5 -1.66699 11.5 -5s4.5 -7 4.5 -11v-32
c0 -10.667 -5.33301 -16 -16 -16h-198c-10.667 0 -16 5.33301 -16 16v147c0 7.33301 0.166992 13.166 0.5 17.499s1 8.5 2 12.5s2.83301 8.5 5.5 13.5l11 20.5l145 255c1.33301 2.66699 2 4.66699 2 6v10v103h-150c-10.667 0 -16 5.33301 -16 16v32c0 4 1.5 7.66699 4.5 11
s6.83301 5 11.5 5h198c4.66699 0 8.5 -1.66699 11.5 -5s4.5 -7 4.5 -11v-151z" />
    <glyph glyph-name="bracketleft" unicode="[" horiz-adv-x="249" 
d="M93 601v-537h86c10.667 0 16 -5.33301 16 -16v-32c0 -10.667 -5.33301 -16 -16 -16h-118c-9.33301 0 -17 3.16699 -23 9.5s-9 13.833 -9 22.5v601c0 9.33301 3 17 9 23s13.667 9 23 9h118c10.667 0 16 -5.33301 16 -16v-32c0 -10.667 -5.33301 -16 -16 -16h-86z" />
    <glyph glyph-name="backslash" unicode="\" horiz-adv-x="314" 
d="M29 649c0 10.667 5.33301 15.999 16 15.999h32c10.667 0 16 -5.33301 16 -16v-150c0 -6 0.166992 -9.66699 0.5 -11s1.16602 -3.33301 2.49902 -6l144 -255c4.66699 -8.66699 8.5 -15.5 11.5 -20.5s5 -9.5 6 -13.5s1.66699 -8.16699 2 -12.5s0.5 -10.166 0.5 -17.499
v-147c0 -4.66699 -1.66699 -8.5 -5 -11.5s-7 -4.5 -11 -4.5h-32c-10.667 -0 -16 5.33301 -16 16v147c0 6 -0.166992 9.66699 -0.5 11s-1.16602 3.33301 -2.49902 6l-145 255l-11 20c-2.66699 4.66699 -4.5 9 -5.5 13s-1.66699 8.33301 -2 13s-0.5 10.667 -0.5 18v150z" />
    <glyph glyph-name="bracketright" unicode="]" horiz-adv-x="249" 
d="M163 665c9.33301 0 17 -3 23 -9s9 -13.667 9 -23v-601c0 -8.66699 -3 -16.167 -9 -22.5s-13.667 -9.5 -23 -9.5h-118c-10.667 -0 -16 5.33301 -16 16v32c0 10.667 5.33301 16 16 16h86v537h-86c-10.667 0 -16 5.33301 -16 16v32c0 10.667 5.33301 16 16 16h118v0z" />
    <glyph glyph-name="asciicircum" unicode="^" horiz-adv-x="299" 
d="M43 731c-6 0 -10.166 1.66699 -12.499 5s-1.83301 7.66602 1.5 12.999l58 102c2.66699 5.33301 6.66699 9.5 12 12.5s10.666 5.16699 15.999 6.5h38c5.33301 -1.33301 10.666 -3.5 15.999 -6.5s9.33301 -7.16699 12 -12.5l58 -102
c3.33301 -5.33301 3.83301 -9.66602 1.5 -12.999s-6.5 -5 -12.5 -5h-31c-5.33301 0 -11.166 1.66699 -17.499 5s-10.833 7.66602 -13.5 12.999l-32 56l-31 -56c-3.33301 -5.33301 -8 -9.66602 -14 -12.999s-12 -5 -18 -5h-31v0z" />
    <glyph glyph-name="grave" unicode="`" horiz-adv-x="221" 
d="M32 851c-2.66699 5.33301 -3 9.83301 -1 13.5s6 5.5 12 5.5h31c6 0 12 -1.83301 18 -5.5s10.667 -8.16699 14 -13.5l58 -101c3.33301 -5.33301 3.83301 -9.83301 1.5 -13.5s-6.5 -5.5 -12.5 -5.5h-31c-6 0 -12 1.83301 -18 5.5s-10.667 8.16699 -14 13.5z" />
    <glyph glyph-name="a" unicode="a" horiz-adv-x="314" 
d="M145 665c16 0 30.832 -3 44.499 -9s25.834 -14.333 36.501 -25s19 -23 25 -37s9 -29 9 -45v-533c0 -10.667 -5.33301 -16 -16 -16h-32c-10.667 -0 -16 5.33301 -16 16v285h-103v-285c0 -10.667 -5.33301 -16 -16 -16h-32c-4 0 -7.66699 1.5 -11 4.5s-5 6.83301 -5 11.5
v533c0 16 3 31 9 45s14.333 26.333 25 37s23 19 37 25s29 9 45 9zM195.999 365v184c0 14.667 -5 27 -15 37s-22 15 -36 15c-14.667 0 -27 -5 -37 -15s-15 -22.333 -15 -37v-184h103z" />
    <glyph glyph-name="b" unicode="b" horiz-adv-x="314" 
d="M196 249c0 14 -5 26 -15 36s-22 15 -36 15h-52v-236h52c14 0 26 5 36 15s15 22 15 36v134zM260 416c0 -16.667 -3.16699 -32.166 -9.5 -46.499s-15.166 -26.833 -26.499 -37.5c11.333 -10.667 20.166 -23 26.499 -37s9.5 -29.333 9.5 -46v-134c0 -16 -3 -30.833 -9 -44.5
s-14.333 -25.834 -25 -36.501s-22.834 -19 -36.501 -25s-28.5 -9 -44.5 -9h-84c-8.66699 0 -16.167 3 -22.5 9s-9.5 13.667 -9.5 23v601c0 8.66699 3.16699 16.167 9.5 22.5s13.833 9.5 22.5 9.5h84c16 0 30.833 -3 44.5 -9s25.834 -14.333 36.501 -25s19 -23 25 -37
s9 -29 9 -45v-133zM196 549.001c0 14.667 -5 27 -15 37s-22 15 -36 15h-52v-237h52c14 0 26 5 36 15s15 22.333 15 37v133z" />
    <glyph glyph-name="c" unicode="c" horiz-adv-x="303" 
d="M211 500c-10.667 0 -16 5.33301 -16 16v34c0 14 -5 26 -15 36s-22 15 -36 15s-26 -5 -36 -15s-15 -22 -15 -36v-435c0 -14 5 -26 15 -36s22 -15 36 -15s26 5 36 15s15 22 15 36v37c0 10.667 5.33301 16 16 16h32c10.667 0 16 -5.33301 16 -16v-37
c0 -16 -3 -30.833 -9 -44.5s-14.333 -25.834 -25 -36.501s-22.834 -19 -36.501 -25s-28.5 -9 -44.5 -9s-31 3 -45 9s-26.167 14.333 -36.5 25s-18.5 22.834 -24.5 36.501s-9 28.5 -9 44.5v435c0 16 3 30.833 9 44.5s14.167 25.834 24.5 36.501s22.5 19 36.5 25s29 9 45 9
s30.833 -3 44.5 -9s25.834 -14.333 36.501 -25s19 -22.834 25 -36.501s9 -28.5 9 -44.5v-34c0 -10.667 -5.33301 -16 -16 -16h-32v0z" />
    <glyph glyph-name="d" unicode="d" horiz-adv-x="314" 
d="M145 665c16 0 31 -2.99902 45 -8.99902s26.167 -14.333 36.5 -25s18.5 -23 24.5 -37s9 -29 9 -45v-434c0 -16 -3 -30.833 -9 -44.5s-14.167 -25.834 -24.5 -36.501s-22.5 -19 -36.5 -25s-29 -9 -45 -9h-84c-8.66699 0 -16.167 3 -22.5 9s-9.5 13.667 -9.5 23v601
c0 8.66699 3.16699 16.167 9.5 22.5s13.833 9.5 22.5 9.5h84zM196 549.001c0 14.667 -5 27 -15 37s-22 15 -36 15h-52v-537h52c14 0 26 5 36 15s15 22 15 36v434z" />
    <glyph glyph-name="e" unicode="e" horiz-adv-x="250" 
d="M93 601v-237h87c10.667 0 16 -5.33301 16 -16v-32c0 -4 -1.5 -7.66699 -4.5 -11s-6.83301 -5 -11.5 -5h-87v-236h87c4.66699 0 8.5 -1.66699 11.5 -5s4.5 -7 4.5 -11v-32c0 -10.667 -5.33301 -16 -16 -16h-119c-9.33301 0 -17 3 -23 9s-9 13.667 -9 23v601
c0 8.66699 3 16.167 9 22.5s13.667 9.5 23 9.5h119c4.66699 0 8.5 -1.66699 11.5 -5s4.5 -7 4.5 -11v-32c0 -10.667 -5.33301 -16 -16 -16h-87z" />
    <glyph glyph-name="f" unicode="f" horiz-adv-x="250" 
d="M93 601v-237h87c10.667 0 16 -5.33301 16 -16v-32c0 -4 -1.5 -7.66699 -4.5 -11s-6.83301 -5 -11.5 -5h-87v-284c0 -10.667 -5.33301 -16 -16 -16h-32c-10.667 -0 -16 5.33301 -16 16v617c0 8.66699 3.16699 16.167 9.5 22.5s13.833 9.5 22.5 9.5h119
c4.66699 0 8.5 -1.66699 11.5 -5s4.5 -7 4.5 -11v-32c0 -10.667 -5.33301 -16 -16 -16h-87z" />
    <glyph glyph-name="g" unicode="g" horiz-adv-x="313" 
d="M211 500c-10.667 0 -16 5.33301 -16 16v34c0 14 -5 26 -15 36s-22 15 -36 15s-26 -5 -36 -15s-15 -22 -15 -36v-435c0 -14 5 -26 15 -36s22 -15 36 -15s26 5 36 15s15 22 15 36v187h-35c-10.667 0 -16 5.33301 -16 16v32c0 10.667 5.33301 16 16 16h83
c10.667 0 16 -5.33301 16 -16v-235c0 -16 -3 -30.833 -9 -44.5s-14.333 -25.834 -25 -36.501s-22.834 -19 -36.501 -25s-28.5 -9 -44.5 -9s-30.833 3 -44.5 9s-25.834 14.333 -36.501 25s-19 22.834 -25 36.501s-9 28.5 -9 44.5v435c0 16 3 30.833 9 44.5
s14.333 25.834 25 36.501s22.834 19 36.501 25s28.5 9 44.5 9s30.833 -3 44.5 -9s25.834 -14.333 36.501 -25s19 -22.834 25 -36.501s9 -28.5 9 -44.5v-34c0 -10.667 -5.33301 -16 -16 -16h-32v0z" />
    <glyph glyph-name="h" unicode="h" horiz-adv-x="313" 
d="M243 665c4.66699 0 8.5 -1.66699 11.5 -5s4.5 -7 4.5 -11v-633c0 -10.667 -5.33301 -16 -16 -16h-31c-10.667 -0 -16 5.33301 -16 16v284h-103v-284c0 -10.667 -5.33301 -16 -16 -16h-32c-10.667 -0 -16 5.33301 -16 16v632v1c0 4 1.5 7.66699 4.5 11s6.83301 5 11.5 5
h32c4.66699 0 8.5 -1.66699 11.5 -5s4.5 -7 4.5 -11v-285h103v285c0 4 1.5 7.66699 4.5 11s6.83301 5 11.5 5h31v0z" />
    <glyph glyph-name="i" unicode="i" horiz-adv-x="147" 
d="M93 16c0 -10.667 -5.33301 -16 -16 -16h-32c-10.667 -0 -16 5.33301 -16 16v632v1c0 4 1.5 7.66699 4.5 11s6.83301 5 11.5 5h32c4.66699 0 8.5 -1.66699 11.5 -5s4.5 -7 4.5 -11v-633z" />
    <glyph glyph-name="j" unicode="j" horiz-adv-x="313" 
d="M243 665c10.667 0 16.001 -5.33301 16.001 -16v-534c0 -16 -3 -30.833 -9 -44.5s-14.167 -25.834 -24.5 -36.501s-22.5 -19 -36.5 -25s-29 -9 -45 -9s-30.833 3 -44.5 9s-25.834 14.333 -36.501 25s-19 22.834 -25 36.501s-9 28.5 -9 44.5v37c0 10.667 5.33301 16 16 16
h32c10.667 0 16 -5.33301 16 -16v-37c0 -14 5 -26 15 -36s22 -15 36 -15s26 5 36 15s15 22 15 36v534c0 4.66699 1.66699 8.5 5 11.5s7 4.5 11 4.5h32v0z" />
    <glyph glyph-name="k" unicode="k" horiz-adv-x="314" 
d="M260 416c0 -16.667 -3.16699 -32 -9.5 -46s-15.166 -26.333 -26.499 -37c11.333 -10.667 20.166 -23.167 26.499 -37.5s9.5 -29.833 9.5 -46.5v-233c0 -4.66699 -1.66699 -8.5 -5 -11.5s-7 -4.5 -11 -4.5h-32c-10.667 -0 -16 5.33301 -16 16v233c0 14.667 -5 27 -15 37
s-22.333 15 -37 15h-51v-285c0 -10.667 -5.33301 -16 -16 -16h-32c-10.667 -0 -16 5.33301 -16 16v285v64v283v1c0 4 1.5 7.66699 4.5 11s6.83301 5 11.5 5h32c4.66699 0 8.5 -1.66699 11.5 -5s4.5 -7 4.5 -11v-284h51c14.667 0 27 5 37 15s15 22 15 36v233
c0 4 1.5 7.66699 4.5 11s6.83301 5 11.5 5h32c4 0 7.66699 -1.66699 11 -5s5 -7 5 -11v-233z" />
    <glyph glyph-name="l" unicode="l" horiz-adv-x="239" 
d="M179 64c4.66699 0 8.5 -1.66699 11.5 -5s4.5 -7 4.5 -11v-32c0 -10.667 -5.33301 -16 -16 -16h-118c-9.33301 0 -17 3 -23 9s-9 13.667 -9 23v617c0 4 1.5 7.66699 4.5 11s6.83301 5 11.5 5h32c4 0 7.66699 -1.66699 11 -5s5 -7 5 -11v-585h86v0z" />
    <glyph glyph-name="m" unicode="m" horiz-adv-x="481" 
d="M311 665c16 0 31 -3 45 -9s26.333 -14.333 37 -25s19 -23 25 -37s9 -29 9 -45v-533c0 -4.66699 -1.66699 -8.5 -5 -11.5s-7 -4.5 -11 -4.5h-32c-10.667 -0 -16 5.33301 -16 16v533c0 14.667 -5 27 -15 37s-22.333 15 -37 15c-14 0 -26 -5 -36 -15s-15 -22.333 -15 -37
v-533c0 -10.667 -5.33301 -16 -16 -16h-32c-10.667 -0 -16 5.33301 -16 16v533c0 14.667 -5 27 -15 37s-22 15 -36 15c-14.667 0 -27 -5 -37 -15s-15 -22.333 -15 -37v-533c0 -10.667 -5.33301 -16 -16 -16h-32c-4 0 -7.66699 1.5 -11 4.5s-5 6.83301 -5 11.5v533
c0 16 3 31 9 45s14.333 26.333 25 37s23 19 37 25s29 9 45 9s31.167 -3.16699 45.5 -9.5s26.833 -15.166 37.5 -26.499c10.667 11.333 23.167 20.166 37.5 26.499s29.5 9.5 45.5 9.5z" />
    <glyph glyph-name="n" unicode="n" horiz-adv-x="314" 
d="M145 665c16 0 30.832 -3 44.499 -9s25.834 -14.333 36.501 -25s19 -23 25 -37s9 -29 9 -45v-533c0 -10.667 -5.33301 -16 -16 -16h-32c-10.667 -0 -16 5.33301 -16 16v533c0 14.667 -5 27 -15 37s-22 15 -36 15c-14.667 0 -27 -5 -37 -15s-15 -22.333 -15 -37v-533
c0 -10.667 -5.33301 -16 -16 -16h-32c-10.667 -0 -16 5.33301 -16 16v533c0 16 3 31 9 45s14.333 26.333 25 37s23 19 37 25s29 9 45 9z" />
    <glyph glyph-name="o" unicode="o" horiz-adv-x="314" 
d="M196 549c0 14.667 -5 27 -15 37s-22 15 -36 15c-14.667 0 -27 -5 -37 -15s-15 -22.333 -15 -37v-434c0 -14 5 -26 15 -36s22.333 -15 37 -15c14 0 26 5 36 15s15 22 15 36v434zM145 665c16 0 30.833 -3 44.5 -9s25.834 -14.333 36.501 -25s19 -23 25 -37s9 -29 9 -45
v-434c0 -16 -3 -31 -9 -45s-14.333 -26.167 -25 -36.5s-22.834 -18.5 -36.501 -24.5s-28.5 -9 -44.5 -9s-31 3 -45 9s-26.333 14.167 -37 24.5s-19 22.5 -25 36.5s-9 29 -9 45v434c0 16 3 31 9 45s14.333 26.333 25 37s23 19 37 25s29 9 45 9z" />
    <glyph glyph-name="p" unicode="p" horiz-adv-x="293" 
d="M195 549c0 14.667 -5 27 -15 37s-22 15 -36 15h-52v-236h52c14 0 26 5 36 15s15 22 15 36v133zM144 665c16 0 30.833 -3 44.5 -9s25.834 -14.333 36.501 -25s19 -23 25 -37s9 -29 9 -45v-133c0 -16 -3 -31 -9 -45s-14.333 -26.167 -25 -36.5s-22.834 -18.5 -36.501 -24.5
s-28.5 -9 -44.5 -9h-52v-285c0 -4.66699 -1.5 -8.5 -4.5 -11.5s-6.5 -4.5 -10.5 -4.5h-32c-10.667 -0 -16 5.33301 -16 16v285v64v283v1c0 4 1.5 7.66699 4.5 11s6.83301 5 11.5 5h99z" />
    <glyph glyph-name="q" unicode="q" horiz-adv-x="314" 
d="M195 548c0 14.667 -5 27 -15 37s-22 15 -36 15s-26 -5 -36 -15s-15 -22.333 -15 -37v-433c0 -14 5 -26 15 -36s22 -15 36 -15s26 5 36 15s15 22 15 36v433zM144 663c16 0 30.8311 -3 44.498 -9s25.834 -14.167 36.501 -24.5s19 -22.5 25 -36.5s9 -29 9 -45v-433
c0 -26 -7.83301 -49 -23.5 -69s-35.5 -33.667 -59.5 -41v-53c0 -4 -1.5 -7.5 -4.5 -10.5s-6.83301 -4.5 -11.5 -4.5h-32c-4.66699 0 -8.5 1.5 -11.5 4.5s-4.5 6.5 -4.5 10.5v53c-24 7.33301 -43.833 21 -59.5 41s-23.5 43 -23.5 69v433c0 16 3 31 9 45
s14.333 26.167 25 36.5s22.834 18.5 36.501 24.5s28.5 9 44.5 9z" />
    <glyph glyph-name="r" unicode="r" horiz-adv-x="308" 
d="M190 549c0 14.667 -5 27 -15 37s-22 15 -36 15h-51v-236h51c14 0 26 5 36 15s15 22 15 36v133zM254 416c0 -33.333 -11.667 -61 -35 -83c23.333 -22 35 -50 35 -84v-233c0 -10.667 -5.33301 -16 -16 -16h-32c-10.667 -0 -16 5.33301 -16 16v233c0 14.667 -5 27 -15 37
s-22 15 -36 15h-51v-285c0 -4.66699 -1.66699 -8.5 -5 -11.5s-7 -4.5 -11 -4.5h-32c-10.667 -0 -16 5.33301 -16 16v617c0 8.66699 3 16.167 9 22.5s13.667 9.5 23 9.5h83c16 0 31 -3 45 -9s26.167 -14.333 36.5 -25s18.5 -23 24.5 -37s9 -29 9 -45v-133z" />
    <glyph glyph-name="s" unicode="s" horiz-adv-x="293" 
d="M201 500c-10.667 0 -16 5.33301 -16 16v34c0 14 -5 26 -15 36s-22 15 -36 15s-26 -5 -36 -15s-15 -22 -15 -36v-51c0 -6 0.166992 -9.66699 0.5 -11s1.16602 -3.33301 2.49902 -6l144 -254l11 -20c2.66699 -4.66699 4.5 -9 5.5 -13s1.66699 -8.16699 2 -12.5
s0.5 -10.166 0.5 -17.499v-50c0 -16 -3 -31 -9 -45s-14.333 -26.167 -25 -36.5s-22.834 -18.5 -36.501 -24.5s-28.5 -9 -44.5 -9s-30.833 3 -44.5 9s-25.834 14.167 -36.501 24.5s-19 22.5 -25 36.5s-9 29 -9 45v34c0 4 1.5 7.66699 4.5 11s6.83301 5 11.5 5h32
c4.66699 0 8.5 -1.66699 11.5 -5s4.5 -7 4.5 -11v-34c0 -14.667 5 -27 15 -37s22 -15 36 -15s26 5 36 15s15 22.333 15 37v50c0 5.33301 -0.166992 8.66602 -0.5 9.99902s-1.16602 3.33301 -2.49902 6l-144 254l-11 20c-2.66699 4.66699 -4.5 9 -5.5 13
s-1.66699 8.33301 -2 13s-0.5 10.667 -0.5 18v51c0 16 3 30.833 9 44.5s14.333 25.834 25 36.501s22.834 19 36.501 25s28.5 9 44.5 9s30.833 -3 44.5 -9s25.834 -14.333 36.501 -25s19 -22.834 25 -36.501s9 -28.5 9 -44.5v-34c0 -10.667 -5.33301 -16 -16 -16h-32v0z" />
    <glyph glyph-name="t" unicode="t" horiz-adv-x="249" 
d="M189 665c4.66699 0 8.5 -1.66699 11.5 -5s4.5 -7 4.5 -11v-32c0 -10.667 -5.33301 -16 -16 -16h-45v-585c0 -10.667 -5.33301 -16 -16 -16h-32c-10.667 -0 -16 5.33301 -16 16v585h-45c-10.667 0 -16 5.33301 -16 16v32c0 4 1.5 7.66699 4.5 11s6.83301 5 11.5 5h154v0z
" />
    <glyph glyph-name="u" unicode="u" horiz-adv-x="314" 
d="M244 665c4.66699 0 8.50098 -1.66699 11.501 -5s4.5 -7 4.5 -11v-534c0 -16 -3 -31 -9 -45s-14.333 -26.167 -25 -36.5s-22.834 -18.5 -36.501 -24.5s-28.5 -9 -44.5 -9s-31 3 -45 9s-26.333 14.167 -37 24.5s-19 22.5 -25 36.5s-9 29 -9 45v534
c0 4 1.66699 7.66699 5 11s7 5 11 5h32c4.66699 0 8.5 -1.66699 11.5 -5s4.5 -7 4.5 -11v-534c0 -14 5 -26 15 -36s22.333 -15 37 -15c14 0 26 5 36 15s15 22 15 36v534c0 4 1.5 7.66699 4.5 11s6.83301 5 11.5 5h32v0z" />
    <glyph glyph-name="v" unicode="v" horiz-adv-x="314" 
d="M243 665c4.66699 0 8.5 -1.66797 11.5 -5.00098s4.5 -7 4.5 -11v-1v-481c0 -22.667 -6.33301 -44 -19 -64l-54 -95c-3.33301 -5.33301 -8 -8 -14 -8h-56c-6 0 -10.667 2.66699 -14 8l-54 95c-12.667 20 -19 41.333 -19 64v482c0 4 1.5 7.66699 4.5 11s6.83301 5 11.5 5
h32c4 0 7.66699 -1.66699 11 -5s5 -7 5 -11v-482c0 -3.33301 0.166992 -6.16602 0.5 -8.49902s0.833008 -4.83301 1.5 -7.5l49 -86l48 86c2 4.66699 3 10 3 16v482c0 4 1.5 7.66699 4.5 11s6.83301 5 11.5 5h32v0z" />
    <glyph glyph-name="w" unicode="w" horiz-adv-x="480" 
d="M410 664c10.667 0 16 -5.33105 16 -15.998v-481c0 -22.667 -6.33301 -44 -19 -64l-54 -95c-3.33301 -5.33301 -8 -8 -14 -8h-56c-6 0 -10.667 2.66699 -14 8l-41 73l-42 -73c-3.33301 -5.33301 -8 -8 -14 -8h-55c-7.33301 0 -12 2.66699 -14 8l-54 95
c-13.333 19.333 -20 40.666 -20 63.999v481c0 10.667 5.33301 16 16 16h32c10.667 0 16 -5.33301 16 -16v-481c0 -6 1 -11.333 3 -16l48 -86l49 86c2 4.66699 3 10 3 16v481c0 10.667 5.33301 16 16 16h32c10.667 0 16 -5.33301 16 -16v-481c0 -6 1 -11.333 3 -16l48 -86
l49 86c0.666992 2.66699 1.16699 5.16699 1.5 7.5s0.5 5.16602 0.5 8.49902v481c0 4.66699 1.66699 8.5 5 11.5s7 4.5 11 4.5h32v0z" />
    <glyph glyph-name="x" unicode="x" horiz-adv-x="314" 
d="M260 498c0 -23.333 -6.66699 -44.666 -20 -63.999l-58 -103l58 -104c13.333 -19.333 20 -40.666 20 -63.999v-147c0 -10.667 -5.33301 -16 -16 -16h-32c-10.667 0 -16 5.33301 -16 16v147c0 5.33301 -1 10.666 -3 15.999l-49 86l-48 -86
c-2 -5.33301 -3 -10.666 -3 -15.999v-147c0 -10.667 -5.33301 -16 -16 -16h-32c-10.667 0 -16 5.33301 -16 16v147c0 23.333 6.66699 44.666 20 63.999l58 104l-58 103c-13.333 19.333 -20 40.666 -20 63.999v151c0 4 1.5 7.66699 4.5 11s6.83301 5 11.5 5h32
c4.66699 0 8.5 -1.66699 11.5 -5s4.5 -7 4.5 -11v-151c0 -6 1 -11.333 3 -16l48 -86l49 86c2 4.66699 3 10 3 16v151c0 4 1.5 7.66699 4.5 11s6.83301 5 11.5 5h32c4.66699 0 8.5 -1.66699 11.5 -5s4.5 -7 4.5 -11v-151v0z" />
    <glyph glyph-name="y" unicode="y" horiz-adv-x="294" 
d="M234 665c4.66699 0 8.50098 -1.66699 11.501 -5s4.5 -7 4.5 -11v-233c0 -26.667 -7.83301 -50 -23.5 -70s-35.5 -33.667 -59.5 -41v-289c0 -4.66699 -1.66699 -8.5 -5 -11.5s-7 -4.5 -11 -4.5h-32c-10.667 -0 -16 5.33301 -16 16v289
c-24.667 7.33301 -44.834 21 -60.501 41s-23.5 43.333 -23.5 70v233c0 4 1.5 7.66699 4.5 11s6.83301 5 11.5 5h32c4.66699 0 8.5 -1.66699 11.5 -5s4.5 -7 4.5 -11v-233c0 -14 5 -26 15 -36s22.333 -15 37 -15c14 0 26 5 36 15s15 22 15 36v233c0 4 1.5 7.66699 4.5 11
s6.83301 5 11.5 5h32v0z" />
    <glyph glyph-name="z" unicode="z" horiz-adv-x="303" 
d="M259 498c0 -7.33301 -0.167969 -13.166 -0.500977 -17.499s-1 -8.5 -2 -12.5s-2.83301 -8.5 -5.5 -13.5l-11 -20.5l-144 -254c-1.33301 -2.66699 -2.16602 -4.66699 -2.49902 -6s-0.5 -5 -0.5 -11v-99h150c4.66699 0 8.5 -1.66699 11.5 -5s4.5 -7 4.5 -11v-32
c0 -10.667 -5.33301 -16 -16 -16h-198c-10.667 0 -16 5.33301 -16 16v147c0 7.33301 0.166992 13.166 0.5 17.499s1 8.5 2 12.5s2.83301 8.5 5.5 13.5l11 20.5l145 255c1.33301 2.66699 2 4.66699 2 6v10v103h-150c-10.667 0 -16 5.33301 -16 16v32c0 4 1.5 7.66699 4.5 11
s6.83301 5 11.5 5h198c4.66699 0 8.5 -1.66699 11.5 -5s4.5 -7 4.5 -11v-151z" />
    <glyph glyph-name="exclamdown" unicode="&#xa1;" horiz-adv-x="147" 
d="M45 569c-10.667 0 -16 5.33301 -16 16v66c0 10.667 5.33301 16 16 16h32c10.667 0 16 -5.33301 16 -16v-66c0 -10.667 -5.33301 -16 -16 -16h-32zM29 489c0 10.667 5.33301 16 16 16h32c10.667 0 16 -5.33301 16 -16v-533c0 -10.667 -5.33301 -16 -16 -16h-32
c-10.667 0 -16 5.33301 -16 16v533z" />
    <glyph glyph-name="dieresis" unicode="&#xa8;" horiz-adv-x="249" 
d="M45 731c-10.667 0 -16 5.33301 -16 16v66c0 10.667 5.33301 16 16 16h32c10.667 0 16 -5.33301 16 -16v-66c0 -10.667 -5.33301 -16 -16 -16h-32zM147 731c-4 0 -7.66699 1.5 -11 4.5s-5 6.83301 -5 11.5v66c0 4.66699 1.66699 8.5 5 11.5s7 4.5 11 4.5h32
c10.667 0 16 -5.33301 16 -16v-66c0 -10.667 -5.33301 -16 -16 -16h-32z" />
    <glyph glyph-name="macron" unicode="&#xaf;" 
 />
    <glyph glyph-name="acute" unicode="&#xb4;" horiz-adv-x="220" 
d="M153 870c5.33301 0 9.16797 -1.83301 11.501 -5.5s1.83301 -8.16699 -1.5 -13.5l-57 -101c-3.33301 -5.33301 -8 -9.83301 -14 -13.5s-12 -5.5 -18 -5.5h-31c-6 0 -10.167 1.83301 -12.5 5.5s-1.83301 8.16699 1.5 13.5l58 101
c2.66699 5.33301 7.16699 9.83301 13.5 13.5s12.166 5.5 17.499 5.5h32v0z" />
    <glyph glyph-name="periodcentered" unicode="&#xb7;" 
 />
    <glyph glyph-name="cedilla" unicode="&#xb8;" 
 />
    <glyph glyph-name="questiondown" unicode="&#xbf;" horiz-adv-x="313" 
d="M211 567c-10.667 0 -16 5.33301 -16 16v66c0 10.667 5.33301 16 16 16h32c10.667 0 16 -5.33301 16 -16v-66c0 -10.667 -5.33301 -16 -16 -16h-32zM144 -62c-16 0 -30.998 3.00195 -44.998 9.00195s-26.167 14.333 -36.5 25s-18.5 22.834 -24.5 36.501s-9 28.5 -9 44.5
v51c0 7.33301 0.166992 13.166 0.5 17.499s1 8.5 2 12.5s2.83301 8.5 5.5 13.5l11 20.5l144 254c1.33301 2.66699 2.16602 4.66699 2.49902 6s0.5 5 0.5 11v48c0 10.667 5.33301 16 16 16h32c10.667 0 16 -5.33301 16 -16v-48c0 -7.33301 -0.166992 -13.333 -0.5 -18
s-1 -9 -2 -13s-3 -8.33301 -6 -13s-6.83301 -11.334 -11.5 -20.001l-144 -254c-1.33301 -2.66699 -2 -4.66699 -2 -6v-11v-51c0 -14 5 -26 15 -36s22 -15 36 -15s26 5 36 15s15 22 15 36v34c0 10.667 5.33301 16 16 16h32c10.667 0 16 -5.33301 16 -16v-34
c0 -16 -3 -30.833 -9 -44.5s-14.333 -25.834 -25 -36.501s-22.834 -19 -36.501 -25s-28.5 -9 -44.5 -9z" />
    <glyph glyph-name="Agrave" unicode="&#xc0;" horiz-adv-x="314" 
d="M40 851c-2.66699 5.33301 -3 9.83301 -1 13.5s6 5.5 12 5.5h31c6 0 12 -1.83301 18 -5.5s10.667 -8.16699 14 -13.5l58 -101c3.33301 -5.33301 3.83301 -9.83301 1.5 -13.5s-6.5 -5.5 -12.5 -5.5h-31c-6 0 -12 1.83301 -18 5.5s-10.667 8.16699 -14 13.5zM145 665
c16 0 30.832 -3 44.499 -9s25.834 -14.333 36.501 -25s19 -23 25 -37s9 -29 9 -45v-533c0 -10.667 -5.33301 -16 -16 -16h-32c-10.667 -0 -16 5.33301 -16 16v285h-103v-285c0 -10.667 -5.33301 -16 -16 -16h-32c-4 0 -7.66699 1.5 -11 4.5s-5 6.83301 -5 11.5v533
c0 16 3 31 9 45s14.333 26.333 25 37s23 19 37 25s29 9 45 9zM195.999 549c0 14.667 -5 27 -15 37s-22 15 -36 15c-14.667 0 -27 -5 -37 -15s-15 -22.333 -15 -37v-184h103v184z" />
    <glyph glyph-name="Aacute" unicode="&#xc1;" horiz-adv-x="314" 
d="M124 731c-6 0 -10.167 1.66699 -12.5 5s-1.83301 7.66602 1.5 12.999l58 102c2.66699 5.33301 7.16699 9.66602 13.5 12.999s12.166 5 17.499 5h31c6 0 10.167 -1.66699 12.5 -5s1.83301 -7.66602 -1.5 -12.999l-58 -102
c-2.66699 -5.33301 -7.16699 -9.66602 -13.5 -12.999s-12.166 -5 -17.499 -5h-31zM145 665c16 0 30.832 -3 44.499 -9s25.834 -14.333 36.501 -25s19 -23 25 -37s9 -29 9 -45v-533c0 -10.667 -5.33301 -16 -16 -16h-32c-10.667 -0 -16 5.33301 -16 16v285h-103v-285
c0 -10.667 -5.33301 -16 -16 -16h-32c-4 0 -7.66699 1.5 -11 4.5s-5 6.83301 -5 11.5v533c0 16 3 31 9 45s14.333 26.333 25 37s23 19 37 25s29 9 45 9zM195.999 549c0 14.667 -5 27 -15 37s-22 15 -36 15c-14.667 0 -27 -5 -37 -15s-15 -22.333 -15 -37v-184h103v184z" />
    <glyph glyph-name="Acircumflex" unicode="&#xc2;" horiz-adv-x="314" 
d="M50 730c-6 0 -10.167 1.66699 -12.5 5s-1.83301 7.66602 1.5 12.999l58 102c2.66699 4.66699 6.66699 8.66699 12 12s10.666 5.33301 15.999 6l6 0.5c4 0.333008 8.33301 0.5 13 0.5s9 -0.166992 13 -0.5l6 -0.5c5.33301 -0.666992 10.666 -2.66699 15.999 -6
s9.33301 -7.33301 12 -12l58 -102c3.33301 -5.33301 3.83301 -9.66602 1.5 -12.999s-6.5 -5 -12.5 -5h-31c-6 0 -12 1.66699 -18 5s-10.667 7.66602 -14 12.999l-31 56l-31 -56c-3.33301 -5.33301 -8.16602 -9.66602 -14.499 -12.999s-12.166 -5 -17.499 -5h-31zM145 665
c16 0 30.832 -3 44.499 -9s25.834 -14.333 36.501 -25s19 -23 25 -37s9 -29 9 -45v-533c0 -10.667 -5.33301 -16 -16 -16h-32c-10.667 -0 -16 5.33301 -16 16v285h-103v-285c0 -10.667 -5.33301 -16 -16 -16h-32c-4 0 -7.66699 1.5 -11 4.5s-5 6.83301 -5 11.5v533
c0 16 3 31 9 45s14.333 26.333 25 37s23 19 37 25s29 9 45 9zM195.999 549c0 14.667 -5 27 -15 37s-22 15 -36 15c-14.667 0 -27 -5 -37 -15s-15 -22.333 -15 -37v-184h103v184z" />
    <glyph glyph-name="Atilde" unicode="&#xc3;" 
 />
    <glyph glyph-name="Adieresis" unicode="&#xc4;" horiz-adv-x="314" 
d="M180 731c-10.667 0 -16 5.33301 -16 16v66c0 4 1.5 7.66699 4.5 11s6.83301 5 11.5 5h31c4.66699 0 8.5 -1.66699 11.5 -5s4.5 -7 4.5 -11v-66c0 -10.667 -5.33301 -16 -16 -16h-31zM77 731c-10.667 0 -16 5.33301 -16 16v66c0 4 1.5 7.66699 4.5 11s6.83301 5 11.5 5h32
c4.66699 0 8.5 -1.66699 11.5 -5s4.5 -7 4.5 -11v-66c0 -10.667 -5.33301 -16 -16 -16h-32zM145 665c16 0 30.832 -3 44.499 -9s25.834 -14.333 36.501 -25s19 -23 25 -37s9 -29 9 -45v-533c0 -10.667 -5.33301 -16 -16 -16h-32c-10.667 -0 -16 5.33301 -16 16v285h-103
v-285c0 -10.667 -5.33301 -16 -16 -16h-32c-4 0 -7.66699 1.5 -11 4.5s-5 6.83301 -5 11.5v533c0 16 3 31 9 45s14.333 26.333 25 37s23 19 37 25s29 9 45 9zM195.999 549c0 14.667 -5 27 -15 37s-22 15 -36 15c-14.667 0 -27 -5 -37 -15s-15 -22.333 -15 -37v-184h103v184z
" />
    <glyph glyph-name="Aring" unicode="&#xc5;" 
 />
    <glyph glyph-name="AE" unicode="&#xc6;" 
 />
    <glyph glyph-name="Ccedilla" unicode="&#xc7;" horiz-adv-x="313" 
d="M211 500c-10.667 0 -16.002 5.33301 -16.002 16v34c0 14 -5 26 -15 36s-22 15 -36 15s-26 -5 -36 -15s-15 -22 -15 -36v-435c0 -14.667 5 -27 15 -37s22 -15 36 -15s26 5 36 15s15 22.333 15 37v37c0 10.667 5.33301 16 16 16h32c10.667 0 16 -5.33301 16 -16v-37
c0 -26.667 -7.83301 -50 -23.5 -70s-35.5 -33.667 -59.5 -41v-50c0 -10.667 -5.33301 -16 -16 -16h-32c-10.667 0 -16 5.33301 -16 16v50c-24 7.33301 -43.833 21 -59.5 41s-23.5 43.333 -23.5 70v435c0 16 3 30.833 9 44.5s14.333 25.834 25 36.501s22.834 19 36.501 25
s28.5 9 44.5 9s30.833 -3 44.5 -9s25.834 -14.333 36.501 -25s19 -22.834 25 -36.501s9 -28.5 9 -44.5v-34c0 -10.667 -5.33301 -16 -16 -16h-32v0z" />
    <glyph glyph-name="Egrave" unicode="&#xc8;" horiz-adv-x="250" 
d="M97 731c-5.33301 0 -11.166 1.83301 -17.499 5.5s-10.833 8.16699 -13.5 13.5l-58 101c-3.33301 5.33301 -3.83301 9.83301 -1.5 13.5s6.5 5.5 12.5 5.5h31c5.33301 0 11.166 -1.83301 17.499 -5.5s10.833 -8.16699 13.5 -13.5l58 -101
c3.33301 -5.33301 3.83301 -9.83301 1.5 -13.5s-6.5 -5.5 -12.5 -5.5h-31zM93 601v-237h87c10.667 0 16 -5.33301 16 -16v-32c0 -4 -1.5 -7.66699 -4.5 -11s-6.83301 -5 -11.5 -5h-87v-236h87c4.66699 0 8.5 -1.66699 11.5 -5s4.5 -7 4.5 -11v-32
c0 -10.667 -5.33301 -16 -16 -16h-119c-9.33301 0 -17 3 -23 9s-9 13.667 -9 23v601c0 8.66699 3 16.167 9 22.5s13.667 9.5 23 9.5h119c4.66699 0 8.5 -1.66699 11.5 -5s4.5 -7 4.5 -11v-32c0 -10.667 -5.33301 -16 -16 -16h-87z" />
    <glyph glyph-name="Eacute" unicode="&#xc9;" horiz-adv-x="269" 
d="M202 870c5.33301 0 9.16797 -1.83301 11.501 -5.5s1.83301 -8.16699 -1.5 -13.5l-57 -101c-3.33301 -5.33301 -8 -9.83301 -14 -13.5s-12 -5.5 -18 -5.5h-31c-6 0 -10.167 1.83301 -12.5 5.5s-1.83301 8.16699 1.5 13.5l58 101
c2.66699 5.33301 7.16699 9.83301 13.5 13.5s12.166 5.5 17.499 5.5h32zM93.002 601v-237h87c10.667 0 16 -5.33301 16 -16v-32c0 -4 -1.5 -7.66699 -4.5 -11s-6.83301 -5 -11.5 -5h-87v-236h87c4.66699 0 8.5 -1.66699 11.5 -5s4.5 -7 4.5 -11v-32
c0 -10.667 -5.33301 -16 -16 -16h-119c-9.33301 0 -17 3 -23 9s-9 13.667 -9 23v601c0 8.66699 3 16.167 9 22.5s13.667 9.5 23 9.5h119c4.66699 0 8.5 -1.66699 11.5 -5s4.5 -7 4.5 -11v-32c0 -10.667 -5.33301 -16 -16 -16h-87z" />
    <glyph glyph-name="Ecircumflex" unicode="&#xca;" horiz-adv-x="250" 
d="M218 750c3.33301 -5.33301 3.83105 -9.83301 1.49805 -13.5s-6.5 -5.5 -12.5 -5.5h-31c-6 0 -12 1.83301 -18 5.5s-10.667 8.16699 -14 13.5l-31 55l-32 -55c-3.33301 -5.33301 -8 -9.83301 -14 -13.5s-12 -5.5 -18 -5.5h-31c-6 0 -10 1.83301 -12 5.5
s-1.66699 8.16699 1 13.5l58 101c2.66699 5.33301 6.83398 9.5 12.501 12.5s11.167 5.16699 16.5 6.5h37c5.33301 -1.33301 10.833 -3.5 16.5 -6.5s9.83398 -7.16699 12.501 -12.5zM92.998 601v-237h87c10.667 0 16 -5.33301 16 -16v-32c0 -4 -1.5 -7.66699 -4.5 -11
s-6.83301 -5 -11.5 -5h-87v-236h87c4.66699 0 8.5 -1.66699 11.5 -5s4.5 -7 4.5 -11v-32c0 -10.667 -5.33301 -16 -16 -16h-119c-9.33301 0 -17 3 -23 9s-9 13.667 -9 23v601c0 8.66699 3 16.167 9 22.5s13.667 9.5 23 9.5h119c4.66699 0 8.5 -1.66699 11.5 -5
s4.5 -7 4.5 -11v-32c0 -10.667 -5.33301 -16 -16 -16h-87z" />
    <glyph glyph-name="Edieresis" unicode="&#xcb;" horiz-adv-x="250" 
d="M179 829c10.667 0 16 -5.33301 16 -16v-66c0 -10.667 -5.33301 -16 -16 -16h-32c-10.667 0 -16 5.33301 -16 16v66c0 10.667 5.33301 16 16 16h32zM45 731c-10.667 0 -16 5.33301 -16 16v66c0 10.667 5.33301 16 16 16h32c4 0 7.66699 -1.5 11 -4.5s5 -6.83301 5 -11.5
v-66c0 -4.66699 -1.66699 -8.5 -5 -11.5s-7 -4.5 -11 -4.5h-32zM93 601v-237h87c10.667 0 16 -5.33301 16 -16v-32c0 -4 -1.5 -7.66699 -4.5 -11s-6.83301 -5 -11.5 -5h-87v-236h87c4.66699 0 8.5 -1.66699 11.5 -5s4.5 -7 4.5 -11v-32c0 -10.667 -5.33301 -16 -16 -16h-119
c-9.33301 0 -17 3 -23 9s-9 13.667 -9 23v601c0 8.66699 3 16.167 9 22.5s13.667 9.5 23 9.5h119c4.66699 0 8.5 -1.66699 11.5 -5s4.5 -7 4.5 -11v-32c0 -10.667 -5.33301 -16 -16 -16h-87z" />
    <glyph glyph-name="Igrave" unicode="&#xcc;" horiz-adv-x="147" 
d="M47 731c-6 0 -12 1.66699 -18 5s-10.667 7.66602 -14 12.999l-58 102c-2.66699 5.33301 -3 9.83301 -1 13.5s6 5.5 12 5.5h31c6 0 12 -1.83301 18 -5.5s10.667 -8.16699 14 -13.5l58 -102c3.33301 -5.33301 3.83301 -9.66602 1.5 -12.999s-6.5 -5 -12.5 -5h-31zM93 16
c0 -10.667 -5.33301 -16 -16 -16h-32c-10.667 -0 -16 5.33301 -16 16v632v1c0 4 1.5 7.66699 4.5 11s6.83301 5 11.5 5h32c4.66699 0 8.5 -1.66699 11.5 -5s4.5 -7 4.5 -11v-633z" />
    <glyph glyph-name="Iacute" unicode="&#xcd;" horiz-adv-x="147" 
d="M150 870c6 0 10.167 -1.83301 12.5 -5.5s1.83301 -8.16699 -1.5 -13.5l-58 -101c-3.33301 -5.33301 -8 -9.83301 -14 -13.5s-12 -5.5 -18 -5.5h-31c-6 0 -10 1.83301 -12 5.5s-1.66699 8.16699 1 13.5l58 101c3.33301 5.33301 8 9.83301 14 13.5s12 5.5 18 5.5h31zM93 16
c0 -10.667 -5.33301 -16 -16 -16h-32c-10.667 -0 -16 5.33301 -16 16v632v1c0 4 1.5 7.66699 4.5 11s6.83301 5 11.5 5h32c4.66699 0 8.5 -1.66699 11.5 -5s4.5 -7 4.5 -11v-633z" />
    <glyph glyph-name="Icircumflex" unicode="&#xce;" horiz-adv-x="147" 
d="M166 749c3.33301 -5.33301 3.83105 -9.66602 1.49805 -12.999s-6.5 -5 -12.5 -5h-31c-6 0 -12 1.66699 -18 5s-10.667 7.66602 -14 12.999l-31 56l-32 -56c-3.33301 -5.33301 -8 -9.66602 -14 -12.999s-12 -5 -18 -5h-31c-6 0 -10 1.66699 -12 5
s-1.66699 7.66602 1 12.999l58 102c6.66699 10.667 16.334 16.667 29.001 18l6 0.5c4 0.333008 8.33301 0.5 13 0.5s8.83398 -0.166992 12.501 -0.5l5.5 -0.5c6 -0.666992 11.667 -2.5 17 -5.5s9.33301 -7.16699 12 -12.5zM92.998 16c0 -10.667 -5.33301 -16 -16 -16h-32
c-10.667 -0 -16 5.33301 -16 16v632v1c0 4 1.5 7.66699 4.5 11s6.83301 5 11.5 5h32c4.66699 0 8.5 -1.66699 11.5 -5s4.5 -7 4.5 -11v-633z" />
    <glyph glyph-name="Idieresis" unicode="&#xcf;" horiz-adv-x="147" 
d="M42 746c0 -4 -1.5 -7.5 -4.5 -10.5s-6.83301 -4.5 -11.5 -4.5h-32c-4.66699 0 -8.5 1.5 -11.5 4.5s-4.5 6.5 -4.5 10.5v67c0 4 1.5 7.66699 4.5 11s6.83301 5 11.5 5h32c4.66699 0 8.5 -1.66699 11.5 -5s4.5 -7 4.5 -11v-67zM128 829c4.66699 0 8.5 -1.66699 11.5 -5
s4.5 -7 4.5 -11v-67c0 -4 -1.5 -7.5 -4.5 -10.5s-6.83301 -4.5 -11.5 -4.5h-32c-4.66699 0 -8.5 1.5 -11.5 4.5s-4.5 6.5 -4.5 10.5v67c0 4 1.5 7.66699 4.5 11s6.83301 5 11.5 5h32zM93 16c0 -10.667 -5.33301 -16 -16 -16h-32c-10.667 -0 -16 5.33301 -16 16v632v1
c0 4 1.5 7.66699 4.5 11s6.83301 5 11.5 5h32c4.66699 0 8.5 -1.66699 11.5 -5s4.5 -7 4.5 -11v-633z" />
    <glyph glyph-name="Ntilde" unicode="&#xd1;" horiz-adv-x="313" 
d="M77 732c-10.667 0 -16 5.33301 -16 16v32c0 10.667 5.33301 16 16 16h135c10.667 0 16 -5.33301 16 -16v-32c0 -10.667 -5.33301 -16 -16 -16h-135zM145 665c16 0 30.832 -3 44.499 -9s25.834 -14.333 36.501 -25s19 -23 25 -37s9 -29 9 -45v-533
c0 -10.667 -5.33301 -16 -16 -16h-32c-10.667 -0 -16 5.33301 -16 16v533c0 14.667 -5 27 -15 37s-22 15 -36 15c-14.667 0 -27 -5 -37 -15s-15 -22.333 -15 -37v-533c0 -10.667 -5.33301 -16 -16 -16h-32c-10.667 -0 -16 5.33301 -16 16v533c0 16 3 31 9 45
s14.333 26.333 25 37s23 19 37 25s29 9 45 9z" />
    <glyph glyph-name="Ograve" unicode="&#xd2;" horiz-adv-x="314" 
d="M40 851c-3.33301 5.33301 -3.83301 9.83301 -1.5 13.5s6.5 5.5 12.5 5.5h31c6 0 12 -1.83301 18 -5.5s10.667 -8.16699 14 -13.5l58 -102c2.66699 -5.33301 3 -9.66602 1 -12.999s-6 -5 -12 -5h-31c-6 0 -12 1.66699 -18 5s-10.667 7.66602 -14 12.999zM196 549
c0 14.667 -5 27 -15 37s-22 15 -36 15c-14.667 0 -27 -5 -37 -15s-15 -22.333 -15 -37v-434c0 -14 5 -26 15 -36s22.333 -15 37 -15c14 0 26 5 36 15s15 22 15 36v434zM145 665c16 0 30.833 -3 44.5 -9s25.834 -14.333 36.501 -25s19 -23 25 -37s9 -29 9 -45v-434
c0 -16 -3 -31 -9 -45s-14.333 -26.167 -25 -36.5s-22.834 -18.5 -36.501 -24.5s-28.5 -9 -44.5 -9s-31 3 -45 9s-26.333 14.167 -37 24.5s-19 22.5 -25 36.5s-9 29 -9 45v434c0 16 3 31 9 45s14.333 26.333 25 37s23 19 37 25s29 9 45 9z" />
    <glyph glyph-name="Oacute" unicode="&#xd3;" horiz-adv-x="314" 
d="M128 730c-6 0 -10.167 1.83301 -12.5 5.5s-1.83301 8.16699 1.5 13.5l58 102c3.33301 5.33301 8 9.66602 14 12.999s12 5 18 5h31c6 0 10 -1.66699 12 -5s1.66699 -7.66602 -1 -12.999l-58 -102c-3.33301 -5.33301 -8 -9.83301 -14 -13.5s-12 -5.5 -18 -5.5h-31zM196 549
c0 14.667 -5 27 -15 37s-22 15 -36 15c-14.667 0 -27 -5 -37 -15s-15 -22.333 -15 -37v-434c0 -14 5 -26 15 -36s22.333 -15 37 -15c14 0 26 5 36 15s15 22 15 36v434zM145 665c16 0 30.833 -3 44.5 -9s25.834 -14.333 36.501 -25s19 -23 25 -37s9 -29 9 -45v-434
c0 -16 -3 -31 -9 -45s-14.333 -26.167 -25 -36.5s-22.834 -18.5 -36.501 -24.5s-28.5 -9 -44.5 -9s-31 3 -45 9s-26.333 14.167 -37 24.5s-19 22.5 -25 36.5s-9 29 -9 45v434c0 16 3 31 9 45s14.333 26.333 25 37s23 19 37 25s29 9 45 9z" />
    <glyph glyph-name="Ocircumflex" unicode="&#xd4;" horiz-adv-x="313" 
d="M50 731c-6 0 -10.167 1.66699 -12.5 5s-1.83301 7.66602 1.5 12.999l58 102c2.66699 5.33301 6.66699 9.5 12 12.5s10.666 5.16699 15.999 6.5h38c5.33301 -1.33301 10.666 -3.5 15.999 -6.5s9.33301 -7.16699 12 -12.5l58 -102
c3.33301 -5.33301 3.83301 -9.66602 1.5 -12.999s-6.5 -5 -12.5 -5h-31c-5.33301 0 -11.166 1.66699 -17.499 5s-10.833 7.66602 -13.5 12.999l-32 56l-32 -56c-2.66699 -5.33301 -7.16699 -9.66602 -13.5 -12.999s-12.166 -5 -17.499 -5h-31zM196 549
c0 14.667 -5 27 -15 37s-22 15 -36 15c-14.667 0 -27 -5 -37 -15s-15 -22.333 -15 -37v-434c0 -14 5 -26 15 -36s22.333 -15 37 -15c14 0 26 5 36 15s15 22 15 36v434zM145 665c16 0 30.833 -3 44.5 -9s25.834 -14.333 36.501 -25s19 -23 25 -37s9 -29 9 -45v-434
c0 -16 -3 -31 -9 -45s-14.333 -26.167 -25 -36.5s-22.834 -18.5 -36.501 -24.5s-28.5 -9 -44.5 -9s-31 3 -45 9s-26.333 14.167 -37 24.5s-19 22.5 -25 36.5s-9 29 -9 45v434c0 16 3 31 9 45s14.333 26.333 25 37s23 19 37 25s29 9 45 9z" />
    <glyph glyph-name="Otilde" unicode="&#xd5;" 
 />
    <glyph glyph-name="Odieresis" unicode="&#xd6;" horiz-adv-x="314" 
d="M77 731c-10.667 0 -16 5.33301 -16 16v66c0 10.667 5.33301 16 16 16h32c10.667 0 16 -5.33301 16 -16v-66c0 -10.667 -5.33301 -16 -16 -16h-32zM179 731c-4 0 -7.66699 1.5 -11 4.5s-5 6.83301 -5 11.5v66c0 4.66699 1.66699 8.5 5 11.5s7 4.5 11 4.5h32
c10.667 0 16 -5.33301 16 -16v-66c0 -10.667 -5.33301 -16 -16 -16h-32zM196 549c0 14.667 -5 27 -15 37s-22 15 -36 15c-14.667 0 -27 -5 -37 -15s-15 -22.333 -15 -37v-434c0 -14 5 -26 15 -36s22.333 -15 37 -15c14 0 26 5 36 15s15 22 15 36v434zM145 665
c16 0 30.833 -3 44.5 -9s25.834 -14.333 36.501 -25s19 -23 25 -37s9 -29 9 -45v-434c0 -16 -3 -31 -9 -45s-14.333 -26.167 -25 -36.5s-22.834 -18.5 -36.501 -24.5s-28.5 -9 -44.5 -9s-31 3 -45 9s-26.333 14.167 -37 24.5s-19 22.5 -25 36.5s-9 29 -9 45v434
c0 16 3 31 9 45s14.333 26.333 25 37s23 19 37 25s29 9 45 9z" />
    <glyph glyph-name="Oslash" unicode="&#xd8;" 
 />
    <glyph glyph-name="Ugrave" unicode="&#xd9;" horiz-adv-x="314" 
d="M40 851c-3.33301 5.33301 -3.83105 9.66602 -1.49805 12.999s6.16602 5 11.499 5h32c5.33301 0 11.166 -1.66699 17.499 -5s10.833 -7.66602 13.5 -12.999l58 -102c3.33301 -5.33301 3.83301 -9.83301 1.5 -13.5s-6.5 -5.5 -12.5 -5.5h-31c-6 0 -12 1.83301 -18 5.5
s-10.667 8.16699 -14 13.5zM244.002 665c4.66699 0 8.50098 -1.66699 11.501 -5s4.5 -7 4.5 -11v-534c0 -16 -3 -31 -9 -45s-14.333 -26.167 -25 -36.5s-22.834 -18.5 -36.501 -24.5s-28.5 -9 -44.5 -9s-31 3 -45 9s-26.333 14.167 -37 24.5s-19 22.5 -25 36.5s-9 29 -9 45
v534c0 4 1.66699 7.66699 5 11s7 5 11 5h32c4.66699 0 8.5 -1.66699 11.5 -5s4.5 -7 4.5 -11v-534c0 -14 5 -26 15 -36s22.333 -15 37 -15c14 0 26 5 36 15s15 22 15 36v534c0 4 1.5 7.66699 4.5 11s6.83301 5 11.5 5h32z" />
    <glyph glyph-name="Uacute" unicode="&#xda;" horiz-adv-x="314" 
d="M123 731c-6 0 -10.166 1.66699 -12.499 5s-1.83301 7.66602 1.5 12.999l58 102c3.33301 5.33301 8 9.83301 14 13.5s11.667 5.5 17 5.5h32c5.33301 0 9.16602 -1.83301 11.499 -5.5s1.83301 -8.16699 -1.5 -13.5l-57 -102c-3.33301 -5.33301 -8 -9.66602 -14 -12.999
s-12 -5 -18 -5h-31zM244.001 665c4.66699 0 8.50098 -1.66699 11.501 -5s4.5 -7 4.5 -11v-534c0 -16 -3 -31 -9 -45s-14.333 -26.167 -25 -36.5s-22.834 -18.5 -36.501 -24.5s-28.5 -9 -44.5 -9s-31 3 -45 9s-26.333 14.167 -37 24.5s-19 22.5 -25 36.5s-9 29 -9 45v534
c0 4 1.66699 7.66699 5 11s7 5 11 5h32c4.66699 0 8.5 -1.66699 11.5 -5s4.5 -7 4.5 -11v-534c0 -14 5 -26 15 -36s22.333 -15 37 -15c14 0 26 5 36 15s15 22 15 36v534c0 4 1.5 7.66699 4.5 11s6.83301 5 11.5 5h32z" />
    <glyph glyph-name="Ucircumflex" unicode="&#xdb;" horiz-adv-x="314" 
d="M50 731c-6 0 -10.166 1.66699 -12.499 5s-1.83301 7.66602 1.5 12.999l58 102c2.66699 5.33301 6.66699 9.5 12 12.5s10.666 5.16699 15.999 6.5h38c5.33301 -1.33301 10.666 -3.5 15.999 -6.5s9.33301 -7.16699 12 -12.5l58 -102
c3.33301 -5.33301 3.83301 -9.66602 1.5 -12.999s-6.5 -5 -12.5 -5h-31c-5.33301 0 -11.166 1.66699 -17.499 5s-10.833 7.66602 -13.5 12.999l-32 56l-31 -56c-3.33301 -5.33301 -8 -9.66602 -14 -12.999s-12 -5 -18 -5h-31zM244.001 665
c4.66699 0 8.50098 -1.66699 11.501 -5s4.5 -7 4.5 -11v-534c0 -16 -3 -31 -9 -45s-14.333 -26.167 -25 -36.5s-22.834 -18.5 -36.501 -24.5s-28.5 -9 -44.5 -9s-31 3 -45 9s-26.333 14.167 -37 24.5s-19 22.5 -25 36.5s-9 29 -9 45v534c0 4 1.66699 7.66699 5 11s7 5 11 5
h32c4.66699 0 8.5 -1.66699 11.5 -5s4.5 -7 4.5 -11v-534c0 -14 5 -26 15 -36s22.333 -15 37 -15c14 0 26 5 36 15s15 22 15 36v534c0 4 1.5 7.66699 4.5 11s6.83301 5 11.5 5h32z" />
    <glyph glyph-name="Udieresis" unicode="&#xdc;" horiz-adv-x="314" 
d="M77 730c-4.66699 0 -8.5 1.66699 -11.5 5s-4.5 7 -4.5 11v66c0 10.667 5.33301 16 16 16h32c10.667 0 16 -5.33301 16 -16v-66c0 -4 -1.5 -7.66699 -4.5 -11s-6.83301 -5 -11.5 -5h-32zM180 730c-4.66699 0 -8.5 1.66699 -11.5 5s-4.5 7 -4.5 11v66
c0 10.667 5.33301 16 16 16h31c10.667 0 16 -5.33301 16 -16v-66c0 -4 -1.5 -7.66699 -4.5 -11s-6.83301 -5 -11.5 -5h-31zM244 665c4.66699 0 8.50098 -1.66699 11.501 -5s4.5 -7 4.5 -11v-534c0 -16 -3 -31 -9 -45s-14.333 -26.167 -25 -36.5s-22.834 -18.5 -36.501 -24.5
s-28.5 -9 -44.5 -9s-31 3 -45 9s-26.333 14.167 -37 24.5s-19 22.5 -25 36.5s-9 29 -9 45v534c0 4 1.66699 7.66699 5 11s7 5 11 5h32c4.66699 0 8.5 -1.66699 11.5 -5s4.5 -7 4.5 -11v-534c0 -14 5 -26 15 -36s22.333 -15 37 -15c14 0 26 5 36 15s15 22 15 36v534
c0 4 1.5 7.66699 4.5 11s6.83301 5 11.5 5h32z" />
    <glyph glyph-name="Yacute" unicode="&#xdd;" 
 />
    <glyph glyph-name="agrave" unicode="&#xe0;" horiz-adv-x="314" 
d="M40 851c-2.66699 5.33301 -3 9.83301 -1 13.5s6 5.5 12 5.5h31c6 0 12 -1.83301 18 -5.5s10.667 -8.16699 14 -13.5l58 -101c3.33301 -5.33301 3.83301 -9.83301 1.5 -13.5s-6.5 -5.5 -12.5 -5.5h-31c-6 0 -12 1.83301 -18 5.5s-10.667 8.16699 -14 13.5zM145 665
c16 0 30.832 -3 44.499 -9s25.834 -14.333 36.501 -25s19 -23 25 -37s9 -29 9 -45v-533c0 -10.667 -5.33301 -16 -16 -16h-32c-10.667 -0 -16 5.33301 -16 16v285h-103v-285c0 -10.667 -5.33301 -16 -16 -16h-32c-4 0 -7.66699 1.5 -11 4.5s-5 6.83301 -5 11.5v533
c0 16 3 31 9 45s14.333 26.333 25 37s23 19 37 25s29 9 45 9zM195.999 549c0 14.667 -5 27 -15 37s-22 15 -36 15c-14.667 0 -27 -5 -37 -15s-15 -22.333 -15 -37v-184h103v184z" />
    <glyph glyph-name="aacute" unicode="&#xe1;" horiz-adv-x="314" 
d="M124 731c-6 0 -10.167 1.66699 -12.5 5s-1.83301 7.66602 1.5 12.999l58 102c2.66699 5.33301 7.16699 9.66602 13.5 12.999s12.166 5 17.499 5h31c6 0 10.167 -1.66699 12.5 -5s1.83301 -7.66602 -1.5 -12.999l-58 -102
c-2.66699 -5.33301 -7.16699 -9.66602 -13.5 -12.999s-12.166 -5 -17.499 -5h-31zM145 665c16 0 30.832 -3 44.499 -9s25.834 -14.333 36.501 -25s19 -23 25 -37s9 -29 9 -45v-533c0 -10.667 -5.33301 -16 -16 -16h-32c-10.667 -0 -16 5.33301 -16 16v285h-103v-285
c0 -10.667 -5.33301 -16 -16 -16h-32c-4 0 -7.66699 1.5 -11 4.5s-5 6.83301 -5 11.5v533c0 16 3 31 9 45s14.333 26.333 25 37s23 19 37 25s29 9 45 9zM195.999 549c0 14.667 -5 27 -15 37s-22 15 -36 15c-14.667 0 -27 -5 -37 -15s-15 -22.333 -15 -37v-184h103v184z" />
    <glyph glyph-name="acircumflex" unicode="&#xe2;" horiz-adv-x="314" 
d="M50 730c-6 0 -10.167 1.66699 -12.5 5s-1.83301 7.66602 1.5 12.999l58 102c2.66699 4.66699 6.66699 8.66699 12 12s10.666 5.33301 15.999 6l6 0.5c4 0.333008 8.33301 0.5 13 0.5s9 -0.166992 13 -0.5l6 -0.5c5.33301 -0.666992 10.666 -2.66699 15.999 -6
s9.33301 -7.33301 12 -12l58 -102c3.33301 -5.33301 3.83301 -9.66602 1.5 -12.999s-6.5 -5 -12.5 -5h-31c-6 0 -12 1.66699 -18 5s-10.667 7.66602 -14 12.999l-31 56l-31 -56c-3.33301 -5.33301 -8.16602 -9.66602 -14.499 -12.999s-12.166 -5 -17.499 -5h-31zM145 665
c16 0 30.832 -3 44.499 -9s25.834 -14.333 36.501 -25s19 -23 25 -37s9 -29 9 -45v-533c0 -10.667 -5.33301 -16 -16 -16h-32c-10.667 -0 -16 5.33301 -16 16v285h-103v-285c0 -10.667 -5.33301 -16 -16 -16h-32c-4 0 -7.66699 1.5 -11 4.5s-5 6.83301 -5 11.5v533
c0 16 3 31 9 45s14.333 26.333 25 37s23 19 37 25s29 9 45 9zM195.999 549c0 14.667 -5 27 -15 37s-22 15 -36 15c-14.667 0 -27 -5 -37 -15s-15 -22.333 -15 -37v-184h103v184z" />
    <glyph glyph-name="adieresis" unicode="&#xe4;" horiz-adv-x="314" 
d="M180 731c-10.667 0 -16 5.33301 -16 16v66c0 4 1.5 7.66699 4.5 11s6.83301 5 11.5 5h31c4.66699 0 8.5 -1.66699 11.5 -5s4.5 -7 4.5 -11v-66c0 -10.667 -5.33301 -16 -16 -16h-31zM77 731c-10.667 0 -16 5.33301 -16 16v66c0 4 1.5 7.66699 4.5 11s6.83301 5 11.5 5h32
c4.66699 0 8.5 -1.66699 11.5 -5s4.5 -7 4.5 -11v-66c0 -10.667 -5.33301 -16 -16 -16h-32zM145 665c16 0 30.832 -3 44.499 -9s25.834 -14.333 36.501 -25s19 -23 25 -37s9 -29 9 -45v-533c0 -10.667 -5.33301 -16 -16 -16h-32c-10.667 -0 -16 5.33301 -16 16v285h-103
v-285c0 -10.667 -5.33301 -16 -16 -16h-32c-4 0 -7.66699 1.5 -11 4.5s-5 6.83301 -5 11.5v533c0 16 3 31 9 45s14.333 26.333 25 37s23 19 37 25s29 9 45 9zM195.999 549c0 14.667 -5 27 -15 37s-22 15 -36 15c-14.667 0 -27 -5 -37 -15s-15 -22.333 -15 -37v-184h103v184z
" />
    <glyph glyph-name="ccedilla" unicode="&#xe7;" horiz-adv-x="313" 
d="M211 500c-10.667 0 -16.002 5.33301 -16.002 16v34c0 14 -5 26 -15 36s-22 15 -36 15s-26 -5 -36 -15s-15 -22 -15 -36v-435c0 -14.667 5 -27 15 -37s22 -15 36 -15s26 5 36 15s15 22.333 15 37v37c0 10.667 5.33301 16 16 16h32c10.667 0 16 -5.33301 16 -16v-37
c0 -26.667 -7.83301 -50 -23.5 -70s-35.5 -33.667 -59.5 -41v-50c0 -10.667 -5.33301 -16 -16 -16h-32c-10.667 0 -16 5.33301 -16 16v50c-24 7.33301 -43.833 21 -59.5 41s-23.5 43.333 -23.5 70v435c0 16 3 30.833 9 44.5s14.333 25.834 25 36.501s22.834 19 36.501 25
s28.5 9 44.5 9s30.833 -3 44.5 -9s25.834 -14.333 36.501 -25s19 -22.834 25 -36.501s9 -28.5 9 -44.5v-34c0 -10.667 -5.33301 -16 -16 -16h-32v0z" />
    <glyph glyph-name="egrave" unicode="&#xe8;" horiz-adv-x="250" 
d="M97 731c-5.33301 0 -11.166 1.83301 -17.499 5.5s-10.833 8.16699 -13.5 13.5l-58 101c-3.33301 5.33301 -3.83301 9.83301 -1.5 13.5s6.5 5.5 12.5 5.5h31c5.33301 0 11.166 -1.83301 17.499 -5.5s10.833 -8.16699 13.5 -13.5l58 -101
c3.33301 -5.33301 3.83301 -9.83301 1.5 -13.5s-6.5 -5.5 -12.5 -5.5h-31zM93 601v-237h87c10.667 0 16 -5.33301 16 -16v-32c0 -4 -1.5 -7.66699 -4.5 -11s-6.83301 -5 -11.5 -5h-87v-236h87c4.66699 0 8.5 -1.66699 11.5 -5s4.5 -7 4.5 -11v-32
c0 -10.667 -5.33301 -16 -16 -16h-119c-9.33301 0 -17 3 -23 9s-9 13.667 -9 23v601c0 8.66699 3 16.167 9 22.5s13.667 9.5 23 9.5h119c4.66699 0 8.5 -1.66699 11.5 -5s4.5 -7 4.5 -11v-32c0 -10.667 -5.33301 -16 -16 -16h-87z" />
    <glyph glyph-name="eacute" unicode="&#xe9;" horiz-adv-x="269" 
d="M202 870c5.33301 0 9.16797 -1.83301 11.501 -5.5s1.83301 -8.16699 -1.5 -13.5l-57 -101c-3.33301 -5.33301 -8 -9.83301 -14 -13.5s-12 -5.5 -18 -5.5h-31c-6 0 -10.167 1.83301 -12.5 5.5s-1.83301 8.16699 1.5 13.5l58 101
c2.66699 5.33301 7.16699 9.83301 13.5 13.5s12.166 5.5 17.499 5.5h32zM93.002 601v-237h87c10.667 0 16 -5.33301 16 -16v-32c0 -4 -1.5 -7.66699 -4.5 -11s-6.83301 -5 -11.5 -5h-87v-236h87c4.66699 0 8.5 -1.66699 11.5 -5s4.5 -7 4.5 -11v-32
c0 -10.667 -5.33301 -16 -16 -16h-119c-9.33301 0 -17 3 -23 9s-9 13.667 -9 23v601c0 8.66699 3 16.167 9 22.5s13.667 9.5 23 9.5h119c4.66699 0 8.5 -1.66699 11.5 -5s4.5 -7 4.5 -11v-32c0 -10.667 -5.33301 -16 -16 -16h-87z" />
    <glyph glyph-name="ecircumflex" unicode="&#xea;" horiz-adv-x="250" 
d="M218 750c3.33301 -5.33301 3.83105 -9.83301 1.49805 -13.5s-6.5 -5.5 -12.5 -5.5h-31c-6 0 -12 1.83301 -18 5.5s-10.667 8.16699 -14 13.5l-31 55l-32 -55c-3.33301 -5.33301 -8 -9.83301 -14 -13.5s-12 -5.5 -18 -5.5h-31c-6 0 -10 1.83301 -12 5.5
s-1.66699 8.16699 1 13.5l58 101c2.66699 5.33301 6.83398 9.5 12.501 12.5s11.167 5.16699 16.5 6.5h37c5.33301 -1.33301 10.833 -3.5 16.5 -6.5s9.83398 -7.16699 12.501 -12.5zM92.998 601v-237h87c10.667 0 16 -5.33301 16 -16v-32c0 -4 -1.5 -7.66699 -4.5 -11
s-6.83301 -5 -11.5 -5h-87v-236h87c4.66699 0 8.5 -1.66699 11.5 -5s4.5 -7 4.5 -11v-32c0 -10.667 -5.33301 -16 -16 -16h-119c-9.33301 0 -17 3 -23 9s-9 13.667 -9 23v601c0 8.66699 3 16.167 9 22.5s13.667 9.5 23 9.5h119c4.66699 0 8.5 -1.66699 11.5 -5
s4.5 -7 4.5 -11v-32c0 -10.667 -5.33301 -16 -16 -16h-87z" />
    <glyph glyph-name="edieresis" unicode="&#xeb;" horiz-adv-x="250" 
d="M179 829c10.667 0 16 -5.33301 16 -16v-66c0 -10.667 -5.33301 -16 -16 -16h-32c-10.667 0 -16 5.33301 -16 16v66c0 10.667 5.33301 16 16 16h32zM45 731c-10.667 0 -16 5.33301 -16 16v66c0 10.667 5.33301 16 16 16h32c4 0 7.66699 -1.5 11 -4.5s5 -6.83301 5 -11.5
v-66c0 -4.66699 -1.66699 -8.5 -5 -11.5s-7 -4.5 -11 -4.5h-32zM93 601v-237h87c10.667 0 16 -5.33301 16 -16v-32c0 -4 -1.5 -7.66699 -4.5 -11s-6.83301 -5 -11.5 -5h-87v-236h87c4.66699 0 8.5 -1.66699 11.5 -5s4.5 -7 4.5 -11v-32c0 -10.667 -5.33301 -16 -16 -16h-119
c-9.33301 0 -17 3 -23 9s-9 13.667 -9 23v601c0 8.66699 3 16.167 9 22.5s13.667 9.5 23 9.5h119c4.66699 0 8.5 -1.66699 11.5 -5s4.5 -7 4.5 -11v-32c0 -10.667 -5.33301 -16 -16 -16h-87z" />
    <glyph glyph-name="igrave" unicode="&#xec;" horiz-adv-x="147" 
d="M47 731c-6 0 -12 1.66699 -18 5s-10.667 7.66602 -14 12.999l-58 102c-2.66699 5.33301 -3 9.83301 -1 13.5s6 5.5 12 5.5h31c6 0 12 -1.83301 18 -5.5s10.667 -8.16699 14 -13.5l58 -102c3.33301 -5.33301 3.83301 -9.66602 1.5 -12.999s-6.5 -5 -12.5 -5h-31zM93 16
c0 -10.667 -5.33301 -16 -16 -16h-32c-10.667 -0 -16 5.33301 -16 16v632v1c0 4 1.5 7.66699 4.5 11s6.83301 5 11.5 5h32c4.66699 0 8.5 -1.66699 11.5 -5s4.5 -7 4.5 -11v-633z" />
    <glyph glyph-name="iacute" unicode="&#xed;" horiz-adv-x="147" 
d="M150 870c6 0 10.167 -1.83301 12.5 -5.5s1.83301 -8.16699 -1.5 -13.5l-58 -101c-3.33301 -5.33301 -8 -9.83301 -14 -13.5s-12 -5.5 -18 -5.5h-31c-6 0 -10 1.83301 -12 5.5s-1.66699 8.16699 1 13.5l58 101c3.33301 5.33301 8 9.83301 14 13.5s12 5.5 18 5.5h31zM93 16
c0 -10.667 -5.33301 -16 -16 -16h-32c-10.667 -0 -16 5.33301 -16 16v632v1c0 4 1.5 7.66699 4.5 11s6.83301 5 11.5 5h32c4.66699 0 8.5 -1.66699 11.5 -5s4.5 -7 4.5 -11v-633z" />
    <glyph glyph-name="icircumflex" unicode="&#xee;" horiz-adv-x="147" 
d="M166 749c3.33301 -5.33301 3.83105 -9.66602 1.49805 -12.999s-6.5 -5 -12.5 -5h-31c-6 0 -12 1.66699 -18 5s-10.667 7.66602 -14 12.999l-31 56l-32 -56c-3.33301 -5.33301 -8 -9.66602 -14 -12.999s-12 -5 -18 -5h-31c-6 0 -10 1.66699 -12 5
s-1.66699 7.66602 1 12.999l58 102c6.66699 10.667 16.334 16.667 29.001 18l6 0.5c4 0.333008 8.33301 0.5 13 0.5s8.83398 -0.166992 12.501 -0.5l5.5 -0.5c6 -0.666992 11.667 -2.5 17 -5.5s9.33301 -7.16699 12 -12.5zM92.998 16c0 -10.667 -5.33301 -16 -16 -16h-32
c-10.667 -0 -16 5.33301 -16 16v632v1c0 4 1.5 7.66699 4.5 11s6.83301 5 11.5 5h32c4.66699 0 8.5 -1.66699 11.5 -5s4.5 -7 4.5 -11v-633z" />
    <glyph glyph-name="idieresis" unicode="&#xef;" horiz-adv-x="147" 
d="M42 746c0 -4 -1.5 -7.5 -4.5 -10.5s-6.83301 -4.5 -11.5 -4.5h-32c-4.66699 0 -8.5 1.5 -11.5 4.5s-4.5 6.5 -4.5 10.5v67c0 4 1.5 7.66699 4.5 11s6.83301 5 11.5 5h32c4.66699 0 8.5 -1.66699 11.5 -5s4.5 -7 4.5 -11v-67zM128 829c4.66699 0 8.5 -1.66699 11.5 -5
s4.5 -7 4.5 -11v-67c0 -4 -1.5 -7.5 -4.5 -10.5s-6.83301 -4.5 -11.5 -4.5h-32c-4.66699 0 -8.5 1.5 -11.5 4.5s-4.5 6.5 -4.5 10.5v67c0 4 1.5 7.66699 4.5 11s6.83301 5 11.5 5h32zM93 16c0 -10.667 -5.33301 -16 -16 -16h-32c-10.667 -0 -16 5.33301 -16 16v632v1
c0 4 1.5 7.66699 4.5 11s6.83301 5 11.5 5h32c4.66699 0 8.5 -1.66699 11.5 -5s4.5 -7 4.5 -11v-633z" />
    <glyph glyph-name="ntilde" unicode="&#xf1;" horiz-adv-x="313" 
d="M77 732c-10.667 0 -16 5.33301 -16 16v32c0 10.667 5.33301 16 16 16h135c10.667 0 16 -5.33301 16 -16v-32c0 -10.667 -5.33301 -16 -16 -16h-135zM145 665c16 0 30.832 -3 44.499 -9s25.834 -14.333 36.501 -25s19 -23 25 -37s9 -29 9 -45v-533
c0 -10.667 -5.33301 -16 -16 -16h-32c-10.667 -0 -16 5.33301 -16 16v533c0 14.667 -5 27 -15 37s-22 15 -36 15c-14.667 0 -27 -5 -37 -15s-15 -22.333 -15 -37v-533c0 -10.667 -5.33301 -16 -16 -16h-32c-10.667 -0 -16 5.33301 -16 16v533c0 16 3 31 9 45
s14.333 26.333 25 37s23 19 37 25s29 9 45 9z" />
    <glyph glyph-name="ograve" unicode="&#xf2;" horiz-adv-x="314" 
d="M40 851c-3.33301 5.33301 -3.83301 9.83301 -1.5 13.5s6.5 5.5 12.5 5.5h31c6 0 12 -1.83301 18 -5.5s10.667 -8.16699 14 -13.5l58 -102c2.66699 -5.33301 3 -9.66602 1 -12.999s-6 -5 -12 -5h-31c-6 0 -12 1.66699 -18 5s-10.667 7.66602 -14 12.999zM196 549
c0 14.667 -5 27 -15 37s-22 15 -36 15c-14.667 0 -27 -5 -37 -15s-15 -22.333 -15 -37v-434c0 -14 5 -26 15 -36s22.333 -15 37 -15c14 0 26 5 36 15s15 22 15 36v434zM145 665c16 0 30.833 -3 44.5 -9s25.834 -14.333 36.501 -25s19 -23 25 -37s9 -29 9 -45v-434
c0 -16 -3 -31 -9 -45s-14.333 -26.167 -25 -36.5s-22.834 -18.5 -36.501 -24.5s-28.5 -9 -44.5 -9s-31 3 -45 9s-26.333 14.167 -37 24.5s-19 22.5 -25 36.5s-9 29 -9 45v434c0 16 3 31 9 45s14.333 26.333 25 37s23 19 37 25s29 9 45 9z" />
    <glyph glyph-name="oacute" unicode="&#xf3;" horiz-adv-x="314" 
d="M128 730c-6 0 -10.167 1.83301 -12.5 5.5s-1.83301 8.16699 1.5 13.5l58 102c3.33301 5.33301 8 9.66602 14 12.999s12 5 18 5h31c6 0 10 -1.66699 12 -5s1.66699 -7.66602 -1 -12.999l-58 -102c-3.33301 -5.33301 -8 -9.83301 -14 -13.5s-12 -5.5 -18 -5.5h-31zM196 549
c0 14.667 -5 27 -15 37s-22 15 -36 15c-14.667 0 -27 -5 -37 -15s-15 -22.333 -15 -37v-434c0 -14 5 -26 15 -36s22.333 -15 37 -15c14 0 26 5 36 15s15 22 15 36v434zM145 665c16 0 30.833 -3 44.5 -9s25.834 -14.333 36.501 -25s19 -23 25 -37s9 -29 9 -45v-434
c0 -16 -3 -31 -9 -45s-14.333 -26.167 -25 -36.5s-22.834 -18.5 -36.501 -24.5s-28.5 -9 -44.5 -9s-31 3 -45 9s-26.333 14.167 -37 24.5s-19 22.5 -25 36.5s-9 29 -9 45v434c0 16 3 31 9 45s14.333 26.333 25 37s23 19 37 25s29 9 45 9z" />
    <glyph glyph-name="ocircumflex" unicode="&#xf4;" horiz-adv-x="313" 
d="M50 731c-6 0 -10.167 1.66699 -12.5 5s-1.83301 7.66602 1.5 12.999l58 102c2.66699 5.33301 6.66699 9.5 12 12.5s10.666 5.16699 15.999 6.5h38c5.33301 -1.33301 10.666 -3.5 15.999 -6.5s9.33301 -7.16699 12 -12.5l58 -102
c3.33301 -5.33301 3.83301 -9.66602 1.5 -12.999s-6.5 -5 -12.5 -5h-31c-5.33301 0 -11.166 1.66699 -17.499 5s-10.833 7.66602 -13.5 12.999l-32 56l-32 -56c-2.66699 -5.33301 -7.16699 -9.66602 -13.5 -12.999s-12.166 -5 -17.499 -5h-31zM196 549
c0 14.667 -5 27 -15 37s-22 15 -36 15c-14.667 0 -27 -5 -37 -15s-15 -22.333 -15 -37v-434c0 -14 5 -26 15 -36s22.333 -15 37 -15c14 0 26 5 36 15s15 22 15 36v434zM145 665c16 0 30.833 -3 44.5 -9s25.834 -14.333 36.501 -25s19 -23 25 -37s9 -29 9 -45v-434
c0 -16 -3 -31 -9 -45s-14.333 -26.167 -25 -36.5s-22.834 -18.5 -36.501 -24.5s-28.5 -9 -44.5 -9s-31 3 -45 9s-26.333 14.167 -37 24.5s-19 22.5 -25 36.5s-9 29 -9 45v434c0 16 3 31 9 45s14.333 26.333 25 37s23 19 37 25s29 9 45 9z" />
    <glyph glyph-name="odieresis" unicode="&#xf6;" horiz-adv-x="314" 
d="M77 731c-10.667 0 -16 5.33301 -16 16v66c0 10.667 5.33301 16 16 16h32c10.667 0 16 -5.33301 16 -16v-66c0 -10.667 -5.33301 -16 -16 -16h-32zM179 731c-4 0 -7.66699 1.5 -11 4.5s-5 6.83301 -5 11.5v66c0 4.66699 1.66699 8.5 5 11.5s7 4.5 11 4.5h32
c10.667 0 16 -5.33301 16 -16v-66c0 -10.667 -5.33301 -16 -16 -16h-32zM196 549c0 14.667 -5 27 -15 37s-22 15 -36 15c-14.667 0 -27 -5 -37 -15s-15 -22.333 -15 -37v-434c0 -14 5 -26 15 -36s22.333 -15 37 -15c14 0 26 5 36 15s15 22 15 36v434zM145 665
c16 0 30.833 -3 44.5 -9s25.834 -14.333 36.501 -25s19 -23 25 -37s9 -29 9 -45v-434c0 -16 -3 -31 -9 -45s-14.333 -26.167 -25 -36.5s-22.834 -18.5 -36.501 -24.5s-28.5 -9 -44.5 -9s-31 3 -45 9s-26.333 14.167 -37 24.5s-19 22.5 -25 36.5s-9 29 -9 45v434
c0 16 3 31 9 45s14.333 26.333 25 37s23 19 37 25s29 9 45 9z" />
    <glyph glyph-name="ugrave" unicode="&#xf9;" horiz-adv-x="314" 
d="M40 851c-3.33301 5.33301 -3.83105 9.66602 -1.49805 12.999s6.16602 5 11.499 5h32c5.33301 0 11.166 -1.66699 17.499 -5s10.833 -7.66602 13.5 -12.999l58 -102c3.33301 -5.33301 3.83301 -9.83301 1.5 -13.5s-6.5 -5.5 -12.5 -5.5h-31c-6 0 -12 1.83301 -18 5.5
s-10.667 8.16699 -14 13.5zM244.002 665c4.66699 0 8.50098 -1.66699 11.501 -5s4.5 -7 4.5 -11v-534c0 -16 -3 -31 -9 -45s-14.333 -26.167 -25 -36.5s-22.834 -18.5 -36.501 -24.5s-28.5 -9 -44.5 -9s-31 3 -45 9s-26.333 14.167 -37 24.5s-19 22.5 -25 36.5s-9 29 -9 45
v534c0 4 1.66699 7.66699 5 11s7 5 11 5h32c4.66699 0 8.5 -1.66699 11.5 -5s4.5 -7 4.5 -11v-534c0 -14 5 -26 15 -36s22.333 -15 37 -15c14 0 26 5 36 15s15 22 15 36v534c0 4 1.5 7.66699 4.5 11s6.83301 5 11.5 5h32z" />
    <glyph glyph-name="uacute" unicode="&#xfa;" horiz-adv-x="314" 
d="M123 731c-6 0 -10.166 1.66699 -12.499 5s-1.83301 7.66602 1.5 12.999l58 102c3.33301 5.33301 8 9.83301 14 13.5s11.667 5.5 17 5.5h32c5.33301 0 9.16602 -1.83301 11.499 -5.5s1.83301 -8.16699 -1.5 -13.5l-57 -102c-3.33301 -5.33301 -8 -9.66602 -14 -12.999
s-12 -5 -18 -5h-31zM244.001 665c4.66699 0 8.50098 -1.66699 11.501 -5s4.5 -7 4.5 -11v-534c0 -16 -3 -31 -9 -45s-14.333 -26.167 -25 -36.5s-22.834 -18.5 -36.501 -24.5s-28.5 -9 -44.5 -9s-31 3 -45 9s-26.333 14.167 -37 24.5s-19 22.5 -25 36.5s-9 29 -9 45v534
c0 4 1.66699 7.66699 5 11s7 5 11 5h32c4.66699 0 8.5 -1.66699 11.5 -5s4.5 -7 4.5 -11v-534c0 -14 5 -26 15 -36s22.333 -15 37 -15c14 0 26 5 36 15s15 22 15 36v534c0 4 1.5 7.66699 4.5 11s6.83301 5 11.5 5h32z" />
    <glyph glyph-name="ucircumflex" unicode="&#xfb;" horiz-adv-x="314" 
d="M50 731c-6 0 -10.166 1.66699 -12.499 5s-1.83301 7.66602 1.5 12.999l58 102c2.66699 5.33301 6.66699 9.5 12 12.5s10.666 5.16699 15.999 6.5h38c5.33301 -1.33301 10.666 -3.5 15.999 -6.5s9.33301 -7.16699 12 -12.5l58 -102
c3.33301 -5.33301 3.83301 -9.66602 1.5 -12.999s-6.5 -5 -12.5 -5h-31c-5.33301 0 -11.166 1.66699 -17.499 5s-10.833 7.66602 -13.5 12.999l-32 56l-31 -56c-3.33301 -5.33301 -8 -9.66602 -14 -12.999s-12 -5 -18 -5h-31zM244.001 665
c4.66699 0 8.50098 -1.66699 11.501 -5s4.5 -7 4.5 -11v-534c0 -16 -3 -31 -9 -45s-14.333 -26.167 -25 -36.5s-22.834 -18.5 -36.501 -24.5s-28.5 -9 -44.5 -9s-31 3 -45 9s-26.333 14.167 -37 24.5s-19 22.5 -25 36.5s-9 29 -9 45v534c0 4 1.66699 7.66699 5 11s7 5 11 5
h32c4.66699 0 8.5 -1.66699 11.5 -5s4.5 -7 4.5 -11v-534c0 -14 5 -26 15 -36s22.333 -15 37 -15c14 0 26 5 36 15s15 22 15 36v534c0 4 1.5 7.66699 4.5 11s6.83301 5 11.5 5h32z" />
    <glyph glyph-name="udieresis" unicode="&#xfc;" horiz-adv-x="314" 
d="M77 730c-4.66699 0 -8.5 1.66699 -11.5 5s-4.5 7 -4.5 11v66c0 10.667 5.33301 16 16 16h32c10.667 0 16 -5.33301 16 -16v-66c0 -4 -1.5 -7.66699 -4.5 -11s-6.83301 -5 -11.5 -5h-32zM180 730c-4.66699 0 -8.5 1.66699 -11.5 5s-4.5 7 -4.5 11v66
c0 10.667 5.33301 16 16 16h31c10.667 0 16 -5.33301 16 -16v-66c0 -4 -1.5 -7.66699 -4.5 -11s-6.83301 -5 -11.5 -5h-31zM244 665c4.66699 0 8.50098 -1.66699 11.501 -5s4.5 -7 4.5 -11v-534c0 -16 -3 -31 -9 -45s-14.333 -26.167 -25 -36.5s-22.834 -18.5 -36.501 -24.5
s-28.5 -9 -44.5 -9s-31 3 -45 9s-26.333 14.167 -37 24.5s-19 22.5 -25 36.5s-9 29 -9 45v534c0 4 1.66699 7.66699 5 11s7 5 11 5h32c4.66699 0 8.5 -1.66699 11.5 -5s4.5 -7 4.5 -11v-534c0 -14 5 -26 15 -36s22.333 -15 37 -15c14 0 26 5 36 15s15 22 15 36v534
c0 4 1.5 7.66699 4.5 11s6.83301 5 11.5 5h32z" />
    <glyph glyph-name="Amacron" unicode="&#x100;" 
 />
    <glyph glyph-name="Abreve" unicode="&#x102;" 
 />
    <glyph glyph-name="Aogonek" unicode="&#x104;" 
 />
    <glyph glyph-name="Cacute" unicode="&#x106;" 
 />
    <glyph glyph-name="Ccircumflex" unicode="&#x108;" 
 />
    <glyph glyph-name="Cdotaccent" unicode="&#x10a;" 
 />
    <glyph glyph-name="Ccaron" unicode="&#x10c;" 
 />
    <glyph glyph-name="Dcaron" unicode="&#x10e;" 
 />
    <glyph glyph-name="Dcroat" unicode="&#x110;" 
 />
    <glyph glyph-name="Emacron" unicode="&#x112;" 
 />
    <glyph glyph-name="Ebreve" unicode="&#x114;" 
 />
    <glyph glyph-name="Edotaccent" unicode="&#x116;" 
 />
    <glyph glyph-name="Eogonek" unicode="&#x118;" 
 />
    <glyph glyph-name="Ecaron" unicode="&#x11a;" horiz-adv-x="250" 
 />
    <glyph glyph-name="Gcircumflex" unicode="&#x11c;" 
 />
    <glyph glyph-name="Gbreve" unicode="&#x11e;" 
 />
    <glyph glyph-name="Gdotaccent" unicode="&#x120;" 
 />
    <glyph glyph-name="Gcommaaccent" unicode="&#x122;" 
 />
    <glyph glyph-name="Hcircumflex" unicode="&#x124;" 
 />
    <glyph glyph-name="Hbar" unicode="&#x126;" 
 />
    <glyph glyph-name="Itilde" unicode="&#x128;" 
 />
    <glyph glyph-name="Ibreve" unicode="&#x12c;" 
 />
    <glyph glyph-name="Iogonek" unicode="&#x12e;" 
 />
    <glyph glyph-name="Idotaccent" unicode="&#x130;" 
 />
    <glyph glyph-name="IJ" unicode="&#x132;" 
 />
    <glyph glyph-name="Jcircumflex" unicode="&#x134;" 
 />
    <glyph glyph-name="Kcommaaccent" unicode="&#x136;" 
 />
    <glyph glyph-name="Lacute" unicode="&#x139;" 
 />
    <glyph glyph-name="Lcommaaccent" unicode="&#x13b;" 
 />
    <glyph glyph-name="Lcaron" unicode="&#x13d;" 
 />
    <glyph glyph-name="Ldot" unicode="&#x13f;" 
 />
    <glyph glyph-name="Lslash" unicode="&#x141;" 
 />
    <glyph glyph-name="Nacute" unicode="&#x143;" 
 />
    <glyph glyph-name="Ncommaaccent" unicode="&#x145;" 
 />
    <glyph glyph-name="Ncaron" unicode="&#x147;" 
 />
    <glyph glyph-name="Omacron" unicode="&#x14c;" 
 />
    <glyph glyph-name="Obreve" unicode="&#x14e;" 
 />
    <glyph glyph-name="Ohungarumlaut" unicode="&#x150;" 
 />
    <glyph glyph-name="OE" unicode="&#x152;" horiz-adv-x="1666" 
 />
    <glyph glyph-name="Racute" unicode="&#x154;" 
 />
    <glyph glyph-name="Rcommaaccent" unicode="&#x156;" 
 />
    <glyph glyph-name="Rcaron" unicode="&#x158;" 
 />
    <glyph glyph-name="Sacute" unicode="&#x15a;" 
 />
    <glyph glyph-name="Scircumflex" unicode="&#x15c;" 
 />
    <glyph glyph-name="Scedilla" unicode="&#x15e;" 
 />
    <glyph glyph-name="Scaron" unicode="&#x160;" 
 />
    <glyph glyph-name="Tcommaaccent" unicode="&#x162;" 
 />
    <glyph glyph-name="Tcaron" unicode="&#x164;" 
 />
    <glyph glyph-name="Tbar" unicode="&#x166;" 
 />
    <glyph glyph-name="Utilde" unicode="&#x168;" 
 />
    <glyph glyph-name="Umacron" unicode="&#x16a;" 
 />
    <glyph glyph-name="Ubreve" unicode="&#x16c;" 
 />
    <glyph glyph-name="Uring" unicode="&#x16e;" 
 />
    <glyph glyph-name="Uhungarumlaut" unicode="&#x170;" 
 />
    <glyph glyph-name="Uogonek" unicode="&#x172;" 
 />
    <glyph glyph-name="Wcircumflex" unicode="&#x174;" 
 />
    <glyph glyph-name="Ycircumflex" unicode="&#x176;" 
 />
    <glyph glyph-name="Ydieresis" unicode="&#x178;" 
 />
    <glyph glyph-name="Zacute" unicode="&#x179;" 
 />
    <glyph glyph-name="Zdotaccent" unicode="&#x17b;" 
 />
    <glyph glyph-name="Zcaron" unicode="&#x17d;" 
 />
    <glyph glyph-name="AEacute" unicode="&#x1fc;" 
 />
    <glyph glyph-name="Oslashacute" unicode="&#x1fe;" 
 />
    <glyph glyph-name="Scommaaccent" unicode="&#x218;" 
 />
    <glyph glyph-name="circumflex" unicode="&#x2c6;" 
 />
    <glyph glyph-name="caron" unicode="&#x2c7;" 
 />
    <glyph glyph-name="breve" unicode="&#x2d8;" 
 />
    <glyph glyph-name="dotaccent" unicode="&#x2d9;" 
 />
    <glyph glyph-name="ring" unicode="&#x2da;" 
 />
    <glyph glyph-name="ogonek" unicode="&#x2db;" 
 />
    <glyph glyph-name="tilde" unicode="&#x2dc;" 
 />
    <glyph glyph-name="hungarumlaut" unicode="&#x2dd;" horiz-adv-x="440" 
 />
    <glyph glyph-name="Wgrave" unicode="&#x1e80;" 
 />
    <glyph glyph-name="Wacute" unicode="&#x1e82;" 
 />
    <glyph glyph-name="Wdieresis" unicode="&#x1e84;" 
 />
    <glyph glyph-name="Ygrave" unicode="&#x1ef2;" 
 />
    <glyph glyph-name="euro" unicode="&#x20ac;" horiz-adv-x="379" 
d="M277 500c-10.667 0 -16 5.33301 -16 16v34c0 14.667 -5 27 -15 37s-22.333 15 -37 15c-14 0 -26 -5 -36 -15s-15 -22.333 -15 -37v-121h50c10.667 0 16 -5.33301 16 -16v-32c0 -10.667 -5.33301 -16 -16 -16h-50v-63h50c4.66699 0 8.5 -1.66699 11.5 -5s4.5 -7 4.5 -11
v-32c0 -10.667 -5.33301 -16 -16 -16h-50v-123c0 -14 5 -26 15 -36s22 -15 36 -15c14.667 0 27 5 37 15s15 22 15 36v38c0 4 1.5 7.66699 4.5 11s6.83301 5 11.5 5h31c4.66699 0 8.5 -1.66699 11.5 -5s4.5 -7 4.5 -11v-38c0 -16 -3 -30.833 -9 -44.5
s-14.167 -25.834 -24.5 -36.501s-22.5 -19 -36.5 -25s-29 -9 -45 -9s-30.833 3 -44.5 9s-25.834 14.333 -36.501 25s-19 22.834 -25 36.501s-9 28.5 -9 44.5v123h-50c-4 0 -7.5 1.5 -10.5 4.5s-4.5 6.83301 -4.5 11.5v32c0 4 1.5 7.66699 4.5 11s6.5 5 10.5 5h50v63h-50
c-4 0 -7.5 1.5 -10.5 4.5s-4.5 6.83301 -4.5 11.5v32c0 4.66699 1.5 8.5 4.5 11.5s6.5 4.5 10.5 4.5h50v121c0 16 3 31 9 45s14.333 26.167 25 36.5s22.834 18.5 36.501 24.5s28.5 9 44.5 9s31 -3 45 -9s26.167 -14.167 36.5 -24.5s18.5 -22.5 24.5 -36.5s9 -29 9 -45v-34
c0 -10.667 -5.33301 -16 -16 -16h-31v0z" />
    <glyph glyph-name=".null" horiz-adv-x="0" 
 />
    <glyph glyph-name="nonmarkingreturn" horiz-adv-x="144" 
 />
    <glyph glyph-name="Imacron" 
 />
    <glyph glyph-name="K.alt" 
 />
    <glyph glyph-name="Kcommaaccent.alt" 
 />
    <glyph glyph-name="Q.alt" 
 />
    <glyph glyph-name="R.alt" 
 />
    <glyph glyph-name="Racute.alt" 
 />
    <glyph glyph-name="Rcaron.alt" 
 />
    <glyph glyph-name="Rcommaaccent.alt" 
 />
    <glyph glyph-name="T_h" horiz-adv-x="1146" 
 />
    <glyph glyph-name="T_h.caron" 
 />
    <glyph glyph-name="T_h.commaaccent" 
 />
    <glyph glyph-name="Asmall" horiz-adv-x="0" 
 />
    <glyph glyph-name="Aacutesmall" horiz-adv-x="0" 
 />
    <glyph glyph-name="Abreve.small" 
 />
    <glyph glyph-name="Acircumflexsmall" horiz-adv-x="0" 
 />
    <glyph glyph-name="Adieresissmall" horiz-adv-x="0" 
 />
    <glyph glyph-name="Agravesmall" horiz-adv-x="0" 
 />
    <glyph glyph-name="Amacron.small" 
 />
    <glyph glyph-name="Aogonek.small" 
 />
    <glyph glyph-name="Aringsmall" horiz-adv-x="0" 
 />
    <glyph glyph-name="Atildesmall" horiz-adv-x="0" 
 />
    <glyph glyph-name="AEsmall" horiz-adv-x="0" 
 />
    <glyph glyph-name="AEacute.small" 
 />
    <glyph glyph-name="Bsmall" horiz-adv-x="0" 
 />
    <glyph glyph-name="Csmall" horiz-adv-x="0" 
 />
    <glyph glyph-name="Cacute.small" 
 />
    <glyph glyph-name="Ccaron.small" 
 />
    <glyph glyph-name="Ccedillasmall" horiz-adv-x="0" 
 />
    <glyph glyph-name="Ccircumflex.small" 
 />
    <glyph glyph-name="Cdotaccent.small" 
 />
    <glyph glyph-name="Dsmall" horiz-adv-x="0" 
 />
    <glyph glyph-name="Dcaron.small" 
 />
    <glyph glyph-name="Dcroat.small" 
 />
    <glyph glyph-name="Esmall" horiz-adv-x="0" 
 />
    <glyph glyph-name="Eacutesmall" horiz-adv-x="0" 
 />
    <glyph glyph-name="Ebreve.small" 
 />
    <glyph glyph-name="Ecaron.small" 
 />
    <glyph glyph-name="Ecircumflexsmall" horiz-adv-x="0" 
 />
    <glyph glyph-name="Edieresissmall" horiz-adv-x="0" 
 />
    <glyph glyph-name="Edotaccent.small" 
 />
    <glyph glyph-name="Egravesmall" horiz-adv-x="0" 
 />
    <glyph glyph-name="Emacron.small" 
 />
    <glyph glyph-name="Eogonek.small" 
 />
    <glyph glyph-name="Fsmall" horiz-adv-x="0" 
 />
    <glyph glyph-name="Gsmall" horiz-adv-x="0" 
 />
    <glyph glyph-name="Gbreve.small" 
 />
    <glyph glyph-name="Gcircumflex.small" 
 />
    <glyph glyph-name="Gcommaaccent.small" 
 />
    <glyph glyph-name="Gdotaccent.small" 
 />
    <glyph glyph-name="Hsmall" horiz-adv-x="0" 
 />
    <glyph glyph-name="Hbar.small" 
 />
    <glyph glyph-name="Hcircumflex.small" 
 />
    <glyph glyph-name="Ismall" horiz-adv-x="0" 
 />
    <glyph glyph-name="Iacutesmall" horiz-adv-x="0" 
 />
    <glyph glyph-name="Ibreve.small" 
 />
    <glyph glyph-name="Icircumflexsmall" horiz-adv-x="0" 
 />
    <glyph glyph-name="Idieresissmall" horiz-adv-x="0" 
 />
    <glyph glyph-name="Idotaccent.small" 
 />
    <glyph glyph-name="Igravesmall" horiz-adv-x="0" 
 />
    <glyph glyph-name="Imacron.small" 
 />
    <glyph glyph-name="Iogonek.small" 
 />
    <glyph glyph-name="Itilde.small" 
 />
    <glyph glyph-name="IJ.small" 
 />
    <glyph glyph-name="Jsmall" horiz-adv-x="0" 
 />
    <glyph glyph-name="Jcircumflex.small" 
 />
    <glyph glyph-name="Ksmall" horiz-adv-x="0" 
 />
    <glyph glyph-name="Kcommaaccent.small" 
 />
    <glyph glyph-name="Ksmall.alt" horiz-adv-x="0" 
 />
    <glyph glyph-name="Kcommaaccent.smallalt" 
 />
    <glyph glyph-name="Lsmall" horiz-adv-x="0" 
 />
    <glyph glyph-name="Lacute.small" 
 />
    <glyph glyph-name="Lcaron.small" 
 />
    <glyph glyph-name="Lcommaaccent.small" 
 />
    <glyph glyph-name="Ldot.small" 
 />
    <glyph glyph-name="Lslashsmall" horiz-adv-x="0" 
 />
    <glyph glyph-name="cyrbreve" horiz-adv-x="0" 
 />
    <glyph glyph-name="commaaccent" horiz-adv-x="144" 
 />
    <glyph glyph-name="undercommaaccent" horiz-adv-x="0" 
 />
    <glyph glyph-name="dieresisacute" horiz-adv-x="0" 
 />
    <glyph glyph-name="dieresisgrave" horiz-adv-x="0" 
 />
    <glyph glyph-name="dblgrave" horiz-adv-x="0" 
 />
    <glyph glyph-name="cyrflex" horiz-adv-x="0" 
 />
    <glyph glyph-name="Acute" horiz-adv-x="0" 
 />
    <glyph glyph-name="Breve" horiz-adv-x="0" 
 />
    <glyph glyph-name="cyrBreve" horiz-adv-x="0" 
 />
    <glyph glyph-name="Caron" horiz-adv-x="0" 
 />
    <glyph glyph-name="Cedilla" horiz-adv-x="0" 
 />
    <glyph glyph-name="Circumflex" horiz-adv-x="0" 
 />
    <glyph glyph-name="commaaccent.cap" horiz-adv-x="144" 
 />
    <glyph glyph-name="Dieresis" horiz-adv-x="0" 
 />
    <glyph glyph-name="DieresisAcute" horiz-adv-x="0" 
 />
    <glyph glyph-name="DieresisGrave" horiz-adv-x="0" 
 />
    <glyph glyph-name="Dotaccent" horiz-adv-x="0" 
 />
    <glyph glyph-name="Hungarumlaut" horiz-adv-x="0" 
 />
    <glyph glyph-name="Grave" horiz-adv-x="0" 
 />
    <glyph glyph-name="dblGrave" horiz-adv-x="0" 
 />
    <glyph glyph-name="cyrFlex" horiz-adv-x="0" 
 />
    <glyph glyph-name="Macron" horiz-adv-x="0" 
 />
    <glyph glyph-name="Ogonek" horiz-adv-x="0" 
 />
    <glyph glyph-name="Ring" horiz-adv-x="0" 
 />
    <glyph glyph-name="Tilde" horiz-adv-x="0" 
 />
    <glyph glyph-name="Acutesmall" horiz-adv-x="0" 
 />
    <glyph glyph-name="Brevesmall" horiz-adv-x="0" 
 />
    <glyph glyph-name="Caronsmall" horiz-adv-x="0" 
 />
    <glyph glyph-name="Cedillasmall" horiz-adv-x="0" 
 />
    <glyph glyph-name="Circumflexsmall" horiz-adv-x="0" 
 />
    <glyph glyph-name="commaaccent.small" horiz-adv-x="144" 
 />
    <glyph glyph-name="Dieresissmall" horiz-adv-x="0" 
 />
    <glyph glyph-name="DieresisAcute.small" horiz-adv-x="0" 
 />
    <glyph glyph-name="DieresisGrave.small" horiz-adv-x="0" 
 />
    <glyph glyph-name="Dotaccentsmall" horiz-adv-x="0" 
 />
    <glyph glyph-name="Hungarumlautsmall" horiz-adv-x="0" 
 />
    <glyph glyph-name="Gravesmall" horiz-adv-x="0" 
 />
    <glyph glyph-name="dblGrave.small" horiz-adv-x="0" 
 />
    <glyph glyph-name="Macronsmall" horiz-adv-x="0" 
 />
    <glyph glyph-name="Ogoneksmall" horiz-adv-x="0" 
 />
    <glyph glyph-name="Ringsmall" horiz-adv-x="0" 
 />
    <glyph glyph-name="Tildesmall" horiz-adv-x="0" 
 />
    </font>
</defs>
</svg>
